/* XPM */
static char * food_down_xpm[] = {
"60 60 235 2",
"  	c #010100",
". 	c #141312",
"+ 	c #2E302E",
"@ 	c #484446",
"# 	c #504148",
"$ 	c #333333",
"% 	c #1B1B1A",
"& 	c #091315",
"* 	c #0E6B7D",
"= 	c #040A0E",
"- 	c #05354F",
"; 	c #1D2223",
"> 	c #0B0B0B",
", 	c #040B03",
"' 	c #0B0302",
") 	c #0B0905",
"! 	c #130201",
"~ 	c #120B0B",
"{ 	c #140D11",
"] 	c #393833",
"^ 	c #181918",
"/ 	c #01050A",
"( 	c #29292A",
"_ 	c #0E110C",
": 	c #2B2B2B",
"< 	c #1B0201",
"[ 	c #230302",
"} 	c #2B0B03",
"| 	c #320403",
"1 	c #14120E",
"2 	c #221E1E",
"3 	c #2B0302",
"4 	c #3B0302",
"5 	c #54140A",
"6 	c #63140C",
"7 	c #68190C",
"8 	c #731C12",
"9 	c #6D1D12",
"0 	c #651B13",
"a 	c #3C0A04",
"b 	c #262926",
"c 	c #080C12",
"d 	c #0959A0",
"e 	c #012747",
"f 	c #232423",
"g 	c #791B16",
"h 	c #841C14",
"i 	c #8B1B12",
"j 	c #921B12",
"k 	c #931A0A",
"l 	c #8C1B0B",
"m 	c #851C0C",
"n 	c #781A0E",
"o 	c #300916",
"p 	c #7C1D15",
"q 	c #941B06",
"r 	c #991706",
"s 	c #9A1A05",
"t 	c #480C09",
"u 	c #0B060B",
"v 	c #5B2C3C",
"w 	c #01233F",
"x 	c #440A05",
"y 	c #95160B",
"z 	c #9B1C0B",
"A 	c #A41D05",
"B 	c #A22006",
"C 	c #A5230C",
"D 	c #AC2207",
"E 	c #AD250C",
"F 	c #A21B0B",
"G 	c #871B18",
"H 	c #6C2114",
"I 	c #120B04",
"J 	c #7C1D0D",
"K 	c #892516",
"L 	c #A91C0C",
"M 	c #B5250C",
"N 	c #B3280D",
"O 	c #B42910",
"P 	c #AF280C",
"Q 	c #B42512",
"R 	c #B92513",
"S 	c #B41F12",
"T 	c #AA1D0D",
"U 	c #A32312",
"V 	c #AD2413",
"W 	c #BA240C",
"X 	c #AB2918",
"Y 	c #4A1208",
"Z 	c #5E140C",
"` 	c #9D2211",
" .	c #B9290E",
"..	c #430504",
"+.	c #630C08",
"@.	c #C2250D",
"#.	c #C42A0F",
"$.	c #CB2C14",
"%.	c #C52A12",
"&.	c #C22611",
"*.	c #87170B",
"=.	c #550C05",
"-.	c #530C09",
";.	c #CC3114",
">.	c #D53215",
",.	c #D4321A",
"'.	c #D32E1A",
").	c #BC2913",
"!.	c #911712",
"~.	c #98261B",
"{.	c #D52E14",
"].	c #DB3115",
"^.	c #DC3219",
"/.	c #CD2E19",
"(.	c #71200D",
"_.	c #DB2E15",
":.	c #9A2109",
"<.	c #792619",
"[.	c #84241D",
"}.	c #B4281C",
"|.	c #D52E0D",
"1.	c #DA310E",
"2.	c #DC2E0E",
"3.	c #521210",
"4.	c #4B0B06",
"5.	c #A42B22",
"6.	c #C52C1A",
"7.	c #DC2E1A",
"8.	c #B62D22",
"9.	c #E1341C",
"0.	c #E33A1D",
"a.	c #C92F21",
"b.	c #D6320F",
"c.	c #E53C21",
"d.	c #F1452C",
"e.	c #F44D32",
"f.	c #FB5435",
"g.	c #FC553B",
"h.	c #F34B2C",
"i.	c #E94125",
"j.	c #973324",
"k.	c #CC3422",
"l.	c #EC4429",
"m.	c #FA5935",
"n.	c #FB593C",
"o.	c #EA3D24",
"p.	c #530202",
"q.	c #A83828",
"r.	c #E73B1B",
"s.	c #F55335",
"t.	c #F6553B",
"u.	c #AA3423",
"v.	c #CB391C",
"w.	c #DA2D22",
"x.	c #FC5541",
"y.	c #E22D1A",
"z.	c #490603",
"A.	c #9D3223",
"B.	c #E33522",
"C.	c #C33324",
"D.	c #E02F0D",
"E.	c #E32B21",
"F.	c #F55936",
"G.	c #F6593A",
"H.	c #E12D16",
"I.	c #BA3926",
"J.	c #D83A1D",
"K.	c #E93D29",
"L.	c #F94F3A",
"M.	c #B73628",
"N.	c #F65642",
"O.	c #C83827",
"P.	c #DC3322",
"Q.	c #F24324",
"R.	c #992721",
"S.	c #D43625",
"T.	c #5F5925",
"U.	c #BC3523",
"V.	c #F64B32",
"W.	c #ED4A2E",
"X.	c #3C413B",
"Y.	c #8C3428",
"Z.	c #B43324",
"`.	c #F7512E",
" +	c #591509",
".+	c #D24226",
"++	c #A43424",
"@+	c #A92F22",
"#+	c #231B23",
"$+	c #7E2215",
"%+	c #BC341A",
"&+	c #CC331D",
"*+	c #2E2A0C",
"=+	c #8B2B16",
"-+	c #E3271B",
";+	c #C5331C",
">+	c #F25A42",
",+	c #F5664F",
"'+	c #F47964",
")+	c #F16753",
"!+	c #EF4E31",
"~+	c #3B3B3A",
"{+	c #EE6555",
"]+	c #FB8C7A",
"^+	c #FBB9A9",
"/+	c #FDCBB6",
"(+	c #FBA795",
"_+	c #E44629",
":+	c #F65B47",
"<+	c #F9806D",
"[+	c #FDD5C8",
"}+	c #FEDCD4",
"|+	c #FEBFB8",
"1+	c #F99888",
"2+	c #EC5B47",
"3+	c #FD938C",
"4+	c #FEC9C5",
"5+	c #FDDCD8",
"6+	c #EB5834",
"7+	c #F15E57",
"8+	c #DC441F",
"9+	c #EE7462",
"0+	c #E34224",
"a+	c #18040A",
"b+	c #EC755F",
"c+	c #E9401F",
"d+	c #2E2E31",
"e+	c #A5311C",
"f+	c #2F3130",
"g+	c #595001",
"h+	c #B0A100",
"i+	c #330802",
"j+	c #7D7200",
"k+	c #332D33",
"l+	c #773C80",
"                                            . + @ # # @ @ @ $ %                           & * &                         ",
"                                = - ; $ % > , ' ) ' ! ~ ~ , ' ~ ~ { ] ^                     /                           ",
"                            ' . ( { ~ )         '   ' ' ' ' '       , , _ : >                                           ",
"                        , . ; > ' ! ' ! ! < < [ } } } } | | [ < < '       , 1 2 : > ,                   = - =           ",
"                      > : . , ' ! < 3 4 5 6 7 8 8 8 8 8 8 8 8 9 0 5 a 3 < ' ' ' ) % + b >               c d e           ",
"                  > f b > ' ! < | 5 0 g h i j j k k l k l l l l i m n 7 5 a [ < ' ' ) { b b ~ o '         = /           ",
"  / /           > : _ ' ' < a 5 9 p h i l k q q q r r s q q q k q k l i h 8 6 t | < ! ' u _ ( v ~                       ",
"  w e         > ( ) ! ! 3 x 7 g h j y z r s A B C A D E C C C C F F F z k j G p H 5 a 3 ! ' I 1 ( . ,                   ",
"  / /     , . 2 ! ! [ 4 6 J K m l z r F L D M M N N O P Q Q Q R Q S S Q T z k l m m J 7 x 3 < ! ) ^ f >                 ",
"          % . ' ! 3 t 7 m k k z U V V N M W M M M N N Q R R Q R R W W Q Q V X C q q q m p 0 Y [ ! ' 1 ( >               ",
"        . . ' ! 3 5 8 m k F C Q Q D D M M N M M Q Q Q Q R Q M N N M N M P O P V C F z y k G 8 Z | < ' u % >             ",
"      > ^ ' ! | Z p l ` E Q M M W W  .N  .M M Q  .R W M M M M M N P N N P O O M Q Q V F z k i p 0 ..[ ! ' ^ >           ",
"    > b , ' 3 +.m z C P M  . .W @.#.#.$.$.$.$.$.%.&.@.W W M M N M O N Q Q Q Q Q Q Q Q Q T z k *.i n =.3 ' ' . >         ",
"  ' b > ' < -.h U E D  .W #.%.$.;.;.>.>.>.>.,.,.,.'.'.$.%.).W W M M Q Q N Q Q R Q Q R R Q C z k y !.n 5 [ ' ) % >       ",
"  % _   ! a p ~.V M N #.$.$.>.,.,.,.>.{.{.>.].^.^.^.,.,././.%.&.W W N  .N M Q Q  .Q Q Q N P U ` z y m (.Y [ ! ) ( >     ",
"> % ' ' | 9 ~.X R &.$.$.>.'.,.,.>.>.]._._._._._.].^.^.^.,.,.'.$.%.@.W W W N M Q M M M M N P X V F y m J 9 t < ' . f     ",
"$ ) ' [ 6 ~.X R $.$.,.>.>.>._._._.].].].].].]._.]._._.^.^.^._.{.$.$.@.W W  .W M M M M M M P Q V U z q m m 8 a < ' % >   ",
"% ' < Y ~.V ).$.'.,.{.>._._._.^.^.^.^._._._._._._._._._.^._._.].>.>.{.$.@.W W W  . . .N M M N Q Q C :.q k J 0 3 ' , : , ",
"  ' | <.X &.$.'._.].{._.]._._.^._._._._.^.^.^.^.^.^.^.^.^._._.].].].>.'.%.$.%.%.%.&.W W  .W  . .Q N C r k *.p Y <   1 % ",
"' < Z ~.).{.{.]._._.^._.^._._._._._._.^._._._.^._._._._._.^.^._.].].].>.>.,.,.,.,.,.$.%.&.W W W W M N D s k i 9 | ' ' $ ",
"! 3 [.}./.|.1.1.]._.].].^._._._._.^._._.].^.^._._.].^._._._.2._.].].].].].].].,.,.,.,.,.'.$.@.W W W M P z k l p 3.< ' . ",
"< 4.5.6.>.1.2.2.].].].]._.].^.^._.].^.^._.].].].].]._._.].1.].].].].].].].]._._._._._.7.7.'./.%.@.W N N C q k h 9 3 !   ",
"3 7 8.'.].1.1.].].^.].].{._._.^.^.9.^.^.0.9.^.^.]._.].^.].].].].].].].].].^._._._._._.7.7.^.^.,.$.@.W M C :.k *.G -.!   ",
"4 [.a._.1.].b.].^._.].b.].^.c.d.e.f.g.f.f.e.h.i.^.{.{.^.].].].].].].].^._._._._._._.7.7.7.7.^.>.>.$.&.M N C q k i 8 !   ",
"..j.k._.1.|.].^.7._.].].0.l.e.g.m.m.g.g.g.n.g.m.h.o.^._.].].].].].]._.^.^.^.^.^._._._.^.7.7.{.].^.>.$.&.M N :.q y h [   ",
"p.q.k._.1._.^.7.7.7.].r.e.f.n.n.m.s.g.m.t.g.m.g.n.f.l.].]._.].].]._.^.^.^.^.^.^.].].].].7.7.].].].].{.'.W N D s r p | ! ",
"p.u.v.].1._.7.7.w.9.r.h.f.g.g.g.g.g.n.x.g.g.g.f.g.g.d.].].^.^.^._._.^.^.].].].].].].^._._.^.].^.]._.y.7.$.W M A r J Y < ",
"z.A.v.1.1.2.7.7.w.B.h.m.g.m.g.f.f.g.g.g.g.g.g.g.g.g.e.c.^.^.^.^.7.7.7._.].].].].].].].]._._.].>.>._.y.y.,.#.W D q K 5 3 ",
"| [.C.{.D.2._.7.E.d.m.F.G.t.g.g.g.g.g.g.f.f.g.g.g.g.g.l.^.].].].^.^.^.^._._._.].^.]._.]._.].>.>.>.>.H.y.7.'.@.D q m 0 | ",
"< =.I.J.1.1._.^.K.L.m.G.m.m.m.g.g.g.g.g.g.g.m.g.m.g.f.o.^._.].].^.^.^.^._.7._._._._._.].^.^.^.,.>.>._.H.y.7.$.N :.m 9 4 ",
"! 4 M./.{.1.].{.c.L.f.f.f.f.f.f.m.F.F.G.G.F.n.n.n.n.s.0.].].].].].].^.^.^.^.^.7.^._.].^._._._.>.>.]._.H.y.7.,. .U m H 4 ",
"' 3 K C.,._.^.^.c.f.g.g.g.g.g.f.G.G.G.F.F.n.n.s.s.n.e.^.].].]._.].].^._._._._._.^.]._.]._._._._.].].^._._.7.,.%.V m 9 4 ",
"  ! z.q.k.{.].H.r.e.g.g.x.N.g.g.m.m.g.m.f.g.g.g.m.f.i.].].].]._.]._._.^.^.^.].].].^.^.]._._.H.H._._.].]._.7.].;.P :.9 4 ",
", ' [ <.O.P._.2.1.Q.f.g.g.N.N.x.g.g.g.f.g.f.g.n.g.l.^.].].].].].].].]._.^.^.]._.].^.^.^._._._.H._.^.].>.^.^.^.>.).` 9 4 ",
"] ' ' | R.S.7.].].r.h.g.g.x.x.g.g.g.g.g.g.g.g.e.d.B.{.7.].].].].].]._._.].^.0.0.c.c.c.c.0.9.y.H._.^.].].]._.].^.$.U 9 | ",
"T.1   ! p.5.U.v.>.b.c.V.g.g.g.g.f.f.g.g.g.n.L.K.^._.7.y.^.]._.]._.].^.^.c.W.f.g.g.g.f.f.f.d.o.9.^.].].1.].{.].].'.U 9 3 ",
"  X.> ' ! | Y.Z.k.'.'.P.i.h.`.f.f.s.s.g.e.d.9.7.7._.^.^.^.{._._.{.^.i.g.g.g.g.g.f.g.g.f.m.g.g.d.c.]._.^.].].|.^.^.}. +[ ",
"  , : >   ! | 6 A.Z.I.C.v.v.v.k..+.+S.S.P.^.B.7.^._._._._.^._.].c.W.e.g.g.g.g.g.f.g.g.g.t.m.x.L.W.c.^._.].].>.|.7.8.-.< ",
"    , $ c   ! < | 4  +<.j.++++A.++++u.Z.C.a.'.{.9.2.].1.{.^._.0.V.g.g.m.g.m.g.m.g.g.g.g.G.t.g.x.t.W.0._.{.>.^.{.w.Z...! ",
"      > % { ) ) ' ! < 3 4 ....z.z.4.=.+.h @+C.k.>.>.].2.^._.^.h.g.m.m.m.g.m.m.g.g.g.g.m.m.t.g.x.t.s.i.7._.].].,.k.++| ' ",
"        , , #+% > ) I ! < < ! ! ! ! < [ | 4.$+u.%+>.1.H.9.{.l.g.g.g.m.G.g.m.m.g.g.m.m.m.t.t.g.g.g.m.d.^.].^.].&+I.$+[ ' ",
"            ' , . : $ #+. 1 ) > > . . ~ ! < 4 (.M.v.{.H._.^.f.g.g.n.G.t.t.t.m.t.m.m.g.m.t.g.g.x.g.g.e.J.^._.].&+q.=.<   ",
"                  , > , , *+1 % 2 b @ $ . ! < 4 =+U.P.-+7.o.f.g.g.m.G.G.G.N.N.G.t.m.g.m.m.g.g.x.g.g.e.J._._.^.;+=+| ' u ",
"                          ,   , , > > . ( 1 I < Z q.S.-+y.L.g.g.g.t.>+,+'+'+'+)+>+t.n.m.m.g.g.g.g.g.!+J._.y.,.Z.7 < ' #+",
"                                        > ~+1 ! | j.a.E.y.f.f.g.g.t.{+]+^+/+^+(+{+>+m.m.t.x.x.f.g.f._+^.H.9.;+j.3 ' u ( ",
"                                          . . ' ! 0 U.P.9.g.f.m.g.:+<+^+[+}+[+|+1+2+t.f.g.x.g.g.g.e.c._._.,.I.Z ! ' % { ",
"                                          , : , ! ..++k.,.h.s.G.t.2+3+4+}+5+}+4+3+{+:+g.g.g.g.m.6+_+0.^.^.C.K | ' > ( o ",
"                                            > _ ! [ 8 M.,.i.s.G.N.2+]+4+}+}+5+4+3+7+N.g.g.f.m.G.6+8+]._.a.@+4.! ) f > ' ",
"                                            , : ) ! ..++k.J.e.m.g.N.9+(+/+[+[+^+9+N.m.m.m.m.m.s.0+J._.&+Z.7 [ ' > %     ",
"                                          a+  > . ! [ 6 U.,._+e.g.x.2+b+1+(+1+b+2+n.f.m.m.m.h.c+^.^.S.Z.$+| ' > + ,     ",
"                                          a+    + ) ' | ~.C.&+0+W.g.s.>+,+{+)+2+:+g.f.`.`.h.r.^._.w.8.[.a ! ) b >       ",
"                                                > % ) ! z.~.U.S.J._+e.f.g.g.g.x.t.s.f.h.o.9.^.,.k.Z.p 4 ! , . >         ",
"                                                  . 1   ! a j.O.,.^.0.r.Q.Q.d.d._+0+c.9.9.,.k.I.A.6 | < ) ^ >           ",
"                                                    b >   < ..R.Z.;+;.^.].].^.^.J.J.J.,.k.O.++$+x 3 ' ) f ,             ",
"                                                    , d+.   ! 4 8 ++U.v.;.>.,.,.'./.;+U.e+K =.3 ! ' > ( >           , I ",
"                                                      , f+u ) ' [ z.n =+A.e+e+e+u.e+K 7 z.3 < ' ) . : >           ' g+h+",
"                                                          % > ) ' ! < [ 3 i+a ..| [ < ! ! ' ) _ ( >                 *+j+",
"                                                              ~+> >         ' ' '     , > _ : .                       ' ",
"                                                                . ~+^ c = , ' ' a+~ % $ d+.                             ",
"                                                                        > % ( k+l+{                                     "};
