/* XPM */
static char * food_right_xpm[] = {
"60 60 235 2",
"  	c #010100",
". 	c #5F5925",
"+ 	c #393833",
"@ 	c #040B03",
"# 	c #0B0302",
"$ 	c #130201",
"% 	c #1B0201",
"& 	c #320403",
"* 	c #490603",
"= 	c #530202",
"- 	c #430504",
"; 	c #3B0302",
"> 	c #2B0302",
", 	c #1B1B1A",
"' 	c #333333",
") 	c #0B0B0B",
"! 	c #3C413B",
"~ 	c #14120E",
"{ 	c #550C05",
"] 	c #84241D",
"^ 	c #9D3223",
"/ 	c #AA3423",
"( 	c #A83828",
"_ 	c #973324",
": 	c #68190C",
"< 	c #4B0B06",
"[ 	c #0B0905",
"} 	c #01050A",
"| 	c #01233F",
"1 	c #2B2B2B",
"2 	c #230302",
"3 	c #892516",
"4 	c #B73628",
"5 	c #BA3926",
"6 	c #C33324",
"7 	c #CB391C",
"8 	c #CC3422",
"9 	c #C92F21",
"0 	c #B62D22",
"a 	c #A42B22",
"b 	c #5E140C",
"c 	c #0E110C",
"d 	c #262926",
"e 	c #012747",
"f 	c #792619",
"g 	c #CD2E19",
"h 	c #D83A1D",
"i 	c #D52E14",
"j 	c #DA310E",
"k 	c #DB3115",
"l 	c #DB2E15",
"m 	c #D32E1A",
"n 	c #C52C1A",
"o 	c #B4281C",
"p 	c #98261B",
"q 	c #4A1208",
"r 	c #080C12",
"s 	c #992721",
"t 	c #C83827",
"u 	c #D4321A",
"v 	c #E02F0D",
"w 	c #D53215",
"x 	c #BC2913",
"y 	c #AB2918",
"z 	c #63140C",
"A 	c #181918",
"B 	c #141312",
"C 	c #140D11",
"D 	c #D43625",
"E 	c #DC3322",
"F 	c #DC2E0E",
"G 	c #D52E0D",
"H 	c #C22611",
"I 	c #AD2413",
"J 	c #6D1D12",
"K 	c #3C0A04",
"L 	c #231B23",
"M 	c #8C3428",
"N 	c #BC3523",
"O 	c #DC2E1A",
"P 	c #DC3219",
"Q 	c #D6320F",
"R 	c #CB2C14",
"S 	c #7C1D15",
"T 	c #530C09",
"U 	c #B43324",
"V 	c #E12D16",
"W 	c #B92513",
"X 	c #841C14",
"Y 	c #630C08",
"Z 	c #221E1E",
"` 	c #E73B1B",
" .	c #E53C21",
"..	c #E93D29",
"+.	c #E32B21",
"@.	c #DA2D22",
"#.	c #A32312",
"$.	c #851C0C",
"%.	c #29292A",
"&.	c #F24324",
"*.	c #F44D32",
"=.	c #FB5435",
"-.	c #F94F3A",
";.	c #F1452C",
">.	c #E33522",
",.	c #E1341C",
"'.	c #B5250C",
").	c #AD250C",
"!.	c #9B1C0B",
"~.	c #54140A",
"{.	c #120B04",
"].	c #591509",
"^.	c #F34B2C",
"/.	c #FC553B",
"(.	c #FA5935",
"_.	c #B3280D",
":.	c #AC2207",
"<.	c #A5230C",
"[.	c #8C1B0B",
"}.	c #731C12",
"|.	c #480C09",
"1.	c #232423",
"2.	c #F64B32",
"3.	c #F6593A",
"4.	c #F55936",
"5.	c #C42A0F",
"6.	c #B9290E",
"7.	c #AF280C",
"8.	c #9D2211",
"9.	c #E94125",
"0.	c #FC5541",
"a.	c #E33A1D",
"b.	c #BA240C",
"c.	c #931A0A",
"d.	c #2E2A0C",
"e.	c #A43424",
"f.	c #F65642",
"g.	c #F6553B",
"h.	c #EC4429",
"i.	c #B42512",
"j.	c #A21B0B",
"k.	c #7C1D0D",
"l.	c #440A05",
"m.	c #F7512E",
"n.	c #FB593C",
"o.	c #C52A12",
"p.	c #1D2223",
"q.	c #791B16",
"r.	c #D24226",
"s.	c #CC3114",
"t.	c #C2250D",
"u.	c #040A0E",
"v.	c #F55335",
"w.	c #921B12",
"x.	c #05354F",
"y.	c #484446",
"z.	c #991706",
"A.	c #95160B",
"B.	c #651B13",
"C.	c #120B0B",
"D.	c #8B1B12",
"E.	c #A91C0C",
"F.	c #18040A",
"G.	c #3B3B3A",
"H.	c #A92F22",
"I.	c #9A1A05",
"J.	c #7E2215",
"K.	c #A41D05",
"L.	c #941B06",
"M.	c #71200D",
"N.	c #A22006",
"O.	c #2E302E",
"P.	c #8B2B16",
"Q.	c #BC341A",
"R.	c #2B0B03",
"S.	c #EA3D24",
"T.	c #504148",
"U.	c #B42910",
"V.	c #2E2E31",
"W.	c #E3271B",
"X.	c #E22D1A",
"Y.	c #2F3130",
"Z.	c #0B060B",
"`.	c #CC331D",
" +	c #E44629",
".+	c #E34224",
"++	c #ED4A2E",
"@+	c #C5331C",
"#+	c #EC5B47",
"$+	c #F65B47",
"%+	c #B41F12",
"&+	c #781A0E",
"*+	c #EE7462",
"=+	c #FB8C7A",
"-+	c #FD938C",
";+	c #F9806D",
">+	c #EE6555",
",+	c #F25A42",
"'+	c #EC755F",
")+	c #FBA795",
"!+	c #FEC9C5",
"~+	c #FBB9A9",
"{+	c #F5664F",
"]+	c #F99888",
"^+	c #FDCBB6",
"/+	c #FEDCD4",
"(+	c #FDD5C8",
"_+	c #F47964",
":+	c #AA1D0D",
"<+	c #330802",
"[+	c #A5311C",
"}+	c #FDDCD8",
"|+	c #F16753",
"1+	c #871B18",
"2+	c #332D33",
"3+	c #FEBFB8",
"4+	c #773C80",
"5+	c #6C2114",
"6+	c #F15E57",
"7+	c #091315",
"8+	c #0E6B7D",
"9+	c #E9401F",
"0+	c #87170B",
"a+	c #5B2C3C",
"b+	c #300916",
"c+	c #EB5834",
"d+	c #DC441F",
"e+	c #911712",
"f+	c #EF4E31",
"g+	c #9A2109",
"h+	c #0959A0",
"i+	c #521210",
"j+	c #595001",
"k+	c #7D7200",
"l+	c #B0A100",
"                                                . + @   # $ % & * = = - ; > % $ #   , ' )                               ",
"                                            @ ! ~ # # $ > ; { ] ^ / ( _ ] : < > % # # [ , , #         } | }             ",
"                                          @ 1 )   # 2 * 3 4 5 6 7 7 8 8 9 0 a ] b & % # # c d )       } e }             ",
"                                        ) ' ) # $ & f ( 6 g h i j k l l l m n o p f q 2 #   ) d )                       ",
"                                      @ , r   $ = s t 8 u i j v j j j j j k w g x y p z & $ # @ A B                     ",
"                                      @ C   $ & a D E i l j j F F l l G k j j G i H I p J K % # # B , @                 ",
"                                    # L [ $ & M N O l k P k l l O O P k Q j F j i R x y p S T > $ # B B                 ",
"                                    @ , [ % z U 7 k F V P i P O O O O P k k F j k m R W y p X Y & $ # Z )               ",
"                                    B ) # & ^ 8 w k j `  . ...+.@.@.O O P k k k l l m R W I #.$.b > $ $ %.)             ",
"                                  @ 1 [ $ ; U m Q ` &.*.=.-.-.;.>.,.O l l P k l l k u R H '.).!.S ~.> $ [ 1 )           ",
"                                  ) ' {.% ].5 m  .^.=././.=.(.(.^.` k k k k k k P i i u R _.:.<.[.}.|.2 $ c 1.          ",
"                                  @ L $ > f 6 E 2././././.=.3.4.(.^.` k Q k k k l l w w R 5.6.7.8.$.: ; $ # d )         ",
"                                  @ B % ; _ 7 9./././.0./.=.(.3./.=.*.a.k i l P P k l w w R b.'.).c.$.z > # ) 1 @       ",
"                                @ d.~ % - e.7 ^./.0.f.f./.=.(.g.(./.=.h.P l k l l l l w m R 5.6.i.j.c.k.l.% # B B       ",
"                                  ~ [ $ - e.7 m./.0.f././.=.(./././.n.*. .l P l l l l l u w o.6.'.<.c.3 : K $ @ p.#     ",
"                                @ , ) $ * ^ 8 =././.0./.=.=././.=./.n./.;.P P l l P P l u u R b.'.i.!.$.q.~.% # ) B     ",
"                                @ Z ) $ * e.r.=.=././.(.3.(././.=./.(.(.*.P l l l l P l w u s.t.b.i.#.[.X J & $ # %.u.  ",
"                                ) d B $ < e.r.v.=././.(.3.4././././.v.(.=.,.k P l l P k w u s.5.b.:.I !.w.S ~.% $ C x.  ",
"                                ) y.B % { / D v././././.3.4./././.n./././.P P l l l P k k w w 5.6.:.I z.A.X B.> # C.p.  ",
"                                B ' C.2 Y U D /././.=.(.4.3./././.0.(./.=.P P l P l l k l i w R _.'._.j.!.D.q.; $ [ '   ",
"                              ) %.B $ & X 6 E *./././.=.4.3./.=././.g./.=.a.l k l P l k l i w R 6.'.'.E.z.[.X ~.$   ,   ",
"                  F.F.    @ B G.~ $ % < H.9 P ;.n./.=./.n.4./.=./././.n.*.,.k P l P l k l w w R '._.b.:.I.c.D.z %   )   ",
"                      @ ) 1 B ~ {.% ; J.6 m >.,.-./././.n.n.(./././.(./.^.P k P l P l k l k u R '.'.'.'.K.L.w.: %   @ B ",
"                    ) 1 c @ # $ % ; M./ 8 i O O ..*.n./.v.n./././.=./.(.9.P k l P P l l l P u R i.'.'.'.N.L.w.}.2   # O.",
"                ) O.B [ $ $ $ & b P.4 Q.w ,.P O P ;./.(.v.n.(./././.n.^.P k k l l P l k k P u o.6.i.'._.<.L.c.}.R.# [ y.",
"              B , [ $ $ 2 - B._ ( N 7 w w F l l l >.h.=.n.n././././.=.S.i l k k l P l l P P m H W i._._.K.z.c.}.R.  # T.",
"          @ d ~ [ # 2 - }.e.N 9 D E i j k k l P O i P 9.*.v.=./.*.;.h.P i k l P l P l l P u m t.b.i._.U.:.z.[.}.R.# $ T.",
"        @ V.)   $ & z e.4 8 E +.W.W.V V F j l P X.O k k P a.S.h. .k k l P P l l l P l P P u R b.'.i.i.7.).I.c.}.R.# C.y.",
"        Y.B   $ * p N 8 u u ,.X.X.O l ,.P i l P P k k k k k P P P k k k k k k l l P P P u g o.b.'.W W i.<.L.[.}.& # C.y.",
"      , Z.  % K p 6 u h 9.^./.=.-.S.P i l P P i k k k k k k l k P P l k k k j l P l l P u g x '.'.i.W i.<.L.[.}.& # @ y.",
"      ) [ $ - _ N `. +*.v.v.=.=./.=.=.h.P l l l l k k k k k k k P P k k k k k F P l l l m o.b.'.'.'.i.i.<.L.[.}.2 # # ' ",
"    G.[ # ; s t D .+*.(.3.3.(./././././.^.a.k l k k k l l k k k P P k k k k k l l k k i R H b._.'._.W W <.c.[.J %   C., ",
"  B ) # 2 }.U u h ++/./.f.g./././././././.2. .i l k k k k k P P O l k k k k k k k k w R o.b.'.'._._.W i.j.L.D.B.%   C.  ",
"  G.) $ * e.@+P  +/.0.f.#+#+$+g.g.(.n./.(./.++P k k k l k k P P O l l k k k k k k k w R t.b.'.U.7.'.b.%+j.c.$.~.#   C   ",
"  A   % &+N s.a.*.v.#+*+=+-+;+>+,+3.3.(.(./.*.9.P l k l P P P P O P P l k k k k k w i t.b._.i._._._.b.%+j.[.&+K   @ +   ",
"  r   2 P.7 P ` =.,+'+)+!+!+~+=+{+3.g.3.(.(././.P l l P l P P P l P P P P k k k w m R b.b.6.i.i._.'.i.i.!.D.: >   @ A   ",
") u.  > ^ s.k &./.{+]+^+/+/+(+~+_+3.g./././././. .k P P l P l l k k P P l k k k w o.t.b.b._._.i.7.7.i.:+c.X ~.%   c     ",
", @   <+[+w k &./.>+)+(+/+}+/+^+_+f.g.(.(.(././.++P P P l P O l k k P P l P k k u R b.6._.'.i.i.U.U.I !.w.}.K # @ 1     ",
"%.# # K [+u P ;./.|+]+(+}+/+(+~+_+f.(.(.(./././.=.a.k k l P l l k k P P l l l k u o.b.b.'.i.i.i.U.7.y c.1+z 2 # ~ )     ",
"2+# # - [+u P ;.0.#+'+~+!+!+3+)+|+3.g././.(./././.a.l k l O l k k k P P l l l u u o.b.'.i.i.W i.'.I <.[.S |.% # Z       ",
"4+F.# & / m h  +g.$+#+*+-+-+]+>+,+g.(./././.=.=./. .k k P P l P k k k l l l l u u o.6.'.'.6.i.i.i.<.L.$.5+& # [ 1       ",
"C C.  2 [+g h .+v./.n.f.6+>+#+,+g.(.(.(./././././. .P P k l l k k k k l l l l u u H 6.'.'.i.i.i.i.j.L.$.~.% # , )       ",
"  ,   % 3 @+h  .=.=.=.(.f.$+g.(.n././.(././././.=. .P P l k l l k P k l O l l u R b.6.'.'.i.W i.I !.L.k.K $ [ O.@       ",
"  ' @ $ : N u ,.^.m.(.(././.=.(.(.(.(.(.(././.=.=. .P k k P k k k l k P O O O u o.b._.'.'.i.W i.j.A.$.: > # C d         ",
"  V.) $ * [+8 ,.S.m.(.(./././.g.(.(.g.g.(.3.g.(.=.a.l l l l P l l l O O O O O m H 6.'.'._._.i.:+!.c.S l.$ Z.d )         ",
"  B c # > 3 t u ,.^.(.(.=./.0.0./././.g.g.g.(./.;.,.l l l l P k l P O O O P m R b.b.'.7.7.7.<.!.c.1+B.> # c d         7+",
"    1 [ % { e.8 P ` ^.(.(././.0././././././.0./.S.X.l V l l P w k k k i P P g t.b.6._.i.y #.!.c.D.}.q % {.%.C.      } 8+",
"    B c # > J.5 u P 9+v.3.(./.=./.0.0./.0.0.-.;.,.V V V l w u w w P k k w u o.b.b.6.i.I I 8.c.0+S b 2 $ ~ a+b+        7+",
"      %.[ $ l.^ 8 l P .+c+c+/./././././.g.g.++ .P l l l k w w w w k k P w R t.b.b.i.i.#.j.!.A.D.B.& $ [ %.C.#           ",
"      ) B # > z U @.P h d+ +*.=./././.(.v.++ .k k P P l k k w w l l k w R t.b.b.'._.<.!.A.A.e+&+- % # A B               ",
"        1 ) # & S 0 D l k a. . +f+*.*.;.9.a.P l k k k k P l l V X.X.i R H b._.'._.<.g+L.$.$.&+{ 2 # ~ 1.@               ",
"        ) %.[ % ; ] U `.l P l P h h h P O l l P j k w k l V V X.X.O m H '.'._.7.:.z.L.$.k.M.~.> $ Z.%.)                 ",
"          ) 1.[ $ K J.U 9 P l V l l P k l i k k k k P l l X.X.O u R b.'._.<.<.!.I.c.c.$.J q 2 # # , )         r u.      ",
"            @ A @ $ & : H.6 u ,.X.l l P k w k k i l P O O O O m 5.b._._.<.g+L.c.c.0+k.}.|.2 # # A )         u.h+x.      ",
"              ) B [ # 2 < 3 5 @+u P k k k P w G k k P k u u R t.b.'.:.g+L.c.c.[.D.S B.K % $ [ B )           } e u.      ",
"                ) d ) # $ & b _ U @+`.`.u i G P k P w s.o.6._.:.:.K.I.L.c.0+X S J q > % # [ , )                         ",
"                  ) O.) [ # $ > : P.( 5 8 @.O P m R x 7.I #.g+L.L.z.z.A.D.1+J i+& % # # B %.)                           ",
"        #           @ , 1.) # # % & { J.e.U 0 o #.#.8.g+$.$.$.$.3 k.S X }.T > % #   @ , 1.)                             ",
"      d.j+@             ) %., Z.# # % 2 & - T ].J J J J J 5+J B.~.q & 2 $ $ $ # # ~ 1 )                                 ",
"    # k+l+{.            # b+C %.L Z.  # # $ % 2 > & ; ; ; ; ; & > % $         B ' , @                                   "};
