/* XPM */
static char *_9d1d002d1594fd8d7552c5859ff16e7jIEfLJKIYvbtMwxg[] = {
/* columns rows colors chars-per-pixel */
"60 60 235 2 ",
"   c #010100",
".  c #0B0302",
"X  c #040B03",
"o  c #0B0905",
"O  c #01050A",
"+  c #0B060B",
"@  c #0B0B0B",
"#  c #040A0E",
"$  c #130201",
"%  c #1B0201",
"&  c #120B04",
"*  c #120B0B",
"=  c #18040A",
"-  c #0E110C",
";  c #14120E",
":  c #080C12",
">  c #140D11",
",  c #091315",
"<  c #141312",
"1  c #1B1B1A",
"2  c #181918",
"3  c #230302",
"4  c #2B0302",
"5  c #2B0B03",
"6  c #320403",
"7  c #3B0302",
"8  c #3C0A04",
"9  c #330802",
"0  c #221E1E",
"q  c #300916",
"w  c #2E2A0C",
"e  c #231B23",
"r  c #1D2223",
"t  c #01233F",
"y  c #232423",
"u  c #262926",
"i  c #2B2B2B",
"p  c #29292A",
"a  c #2E302E",
"s  c #2E2E31",
"d  c #2F3130",
"f  c #333333",
"g  c #3B3B3A",
"h  c #393833",
"j  c #332D33",
"k  c #430504",
"l  c #490603",
"z  c #440A05",
"x  c #4B0B06",
"c  c #480C09",
"v  c #550C05",
"b  c #530C09",
"n  c #530202",
"m  c #4A1208",
"M  c #54140A",
"N  c #5E140C",
"B  c #591509",
"V  c #521210",
"C  c #630C08",
"Z  c #63140C",
"A  c #68190C",
"S  c #7C1D0D",
"D  c #781A0E",
"F  c #651B13",
"G  c #6D1D12",
"H  c #731C12",
"J  c #7C1D15",
"K  c #791B16",
"L  c #6C2114",
"P  c #7E2215",
"I  c #792619",
"U  c #71200D",
"Y  c #5B2C3C",
"T  c #3C413B",
"R  c #595001",
"E  c #7D7200",
"W  c #5F5925",
"Q  c #012747",
"!  c #05354F",
"~  c #0E6B7D",
"^  c #484446",
"/  c #504148",
"(  c #851C0C",
")  c #8C1B0B",
"_  c #87170B",
"`  c #941B06",
"'  c #9A1A05",
"]  c #95160B",
"[  c #931A0A",
"{  c #9B1C0B",
"}  c #991706",
"|  c #841C14",
" . c #8B1B12",
".. c #871B18",
"X. c #921B12",
"o. c #911712",
"O. c #A41D05",
"+. c #A21B0B",
"@. c #A91C0C",
"#. c #B41F12",
"$. c #AA1D0D",
"%. c #9A2109",
"&. c #84241D",
"*. c #892516",
"=. c #9D2211",
"-. c #98261B",
";. c #8B2B16",
":. c #AC2207",
">. c #A5230C",
",. c #AD250C",
"<. c #AF280C",
"1. c #A22006",
"2. c #B5250C",
"3. c #BA240C",
"4. c #B3280D",
"5. c #B9290E",
"6. c #A32312",
"7. c #AD2413",
"8. c #AB2918",
"9. c #B42512",
"0. c #B92513",
"q. c #B42910",
"w. c #BC2913",
"e. c #B4281C",
"r. c #A5311C",
"t. c #BC341A",
"y. c #992721",
"u. c #9D3223",
"i. c #973324",
"p. c #8C3428",
"a. c #A42B22",
"s. c #A92F22",
"d. c #B62D22",
"f. c #A43424",
"g. c #AA3423",
"h. c #A83828",
"j. c #B43324",
"k. c #BC3523",
"l. c #BA3926",
"z. c #B73628",
"x. c #C2250D",
"c. c #C42A0F",
"v. c #D52E0D",
"b. c #DC2E0E",
"n. c #DA310E",
"m. c #D6320F",
"M. c #C22611",
"N. c #C52A12",
"B. c #CB2C14",
"V. c #CD2E19",
"C. c #C52C1A",
"Z. c #D52E14",
"A. c #DB2E15",
"S. c #D32E1A",
"D. c #DC2E1A",
"F. c #CC3114",
"G. c #C5331C",
"H. c #CC331D",
"J. c #CB391C",
"K. c #D53215",
"L. c #DB3115",
"P. c #D4321A",
"I. c #DC3219",
"U. c #D83A1D",
"Y. c #E12D16",
"T. c #E22D1A",
"R. c #E3271B",
"E. c #E1341C",
"W. c #E33A1D",
"Q. c #E73B1B",
"!. c #E02F0D",
"~. c #C92F21",
"^. c #DA2D22",
"/. c #C33324",
"(. c #CC3422",
"). c #C83827",
"_. c #DC3322",
"`. c #D43625",
"'. c #E32B21",
"]. c #E33522",
"[. c #E53C21",
"{. c #EA3D24",
"}. c #E93D29",
"|. c #DC441F",
" X c #E9401F",
".X c #D24226",
"XX c #E34224",
"oX c #E94125",
"OX c #EC4429",
"+X c #ED4A2E",
"@X c #E44629",
"#X c #F1452C",
"$X c #F34B2C",
"%X c #F24324",
"&X c #F7512E",
"*X c #F44D32",
"=X c #F94F3A",
"-X c #F64B32",
";X c #EB5834",
":X c #F55335",
">X c #FB5435",
",X c #F55936",
"<X c #FA5935",
"1X c #F6553B",
"2X c #FC553B",
"3X c #F6593A",
"4X c #FB593C",
"5X c #EF4E31",
"6X c #EC5B47",
"7X c #F65642",
"8X c #FC5541",
"9X c #F25A42",
"0X c #F65B47",
"qX c #F15E57",
"wX c #F5664F",
"eX c #EE6555",
"rX c #F16753",
"tX c #EC755F",
"yX c #F47964",
"uX c #EE7462",
"iX c #B0A100",
"pX c #FB8C7A",
"aX c #F9806D",
"sX c #773C80",
"dX c #0959A0",
"fX c #F99888",
"gX c #FD938C",
"hX c #FBA795",
"jX c #FBB9A9",
"kX c #FEBFB8",
"lX c #FDCBB6",
"zX c #FEC9C5",
"xX c #FDD5C8",
"cX c #FEDCD4",
"vX c #FDDCD8",
/* pixels */
"                                    > sXj p 1 @                                                                         ",
"                            < s f 1 * = . . X # : 2 g <                                                                 ",
".                       < i - @ X     . . .         @ @ g                                                               ",
"E w                 @ p - o . $ $ % 3 6 k 8 9 4 3 % $ . o @ 1                                                           ",
"iXR .           @ i < o . % 4 l A *.r.g.r.r.r.u.;.D l 3 . o + d X                                                       ",
"& X           @ p @ . $ 4 v *.r.k.G.V.S.P.P.K.F.J.k.f.H 7 $   < s X                                                     ",
"            X y o . 4 z P f.).(.P.U.U.U.I.I.L.L.I.F.G.j.y.k %   @ u                                                     ",
"          @ 2 o % 6 Z u.l.(.P.E.E.[.XX@X#X#X%X%XQ.W.I.P.).i.8 $   ; <                                                   ",
"        @ < X $ 7 J j.(.P.I.E.{.$X>X:X1X8X2X2X2X>X*X@XU.`.k.-.l $ o 1 @                                                 ",
"      @ u o $ 8 &.d.^.A.I.Q.$X&X&X>X2X0X6XrXeXwX9X:X2X+XXXH./.-.6 . o a     =                                           ",
"    X a @ . 6 P j.`.I.I. X$X<X<X<X>X4X6XtXfXhXfXtX6X8X2X*X@XP.k.Z 3 $ < @   =                                           ",
"    1 @ . 3 A j.H.A.U.XX:X<X<X<X<X<X7XuXjXxXxXlXhXuX7X2X<X*XU.(.f.k $ o i X                                             ",
". @ y o $ x s.~.A.L.|.;X3X<X>X2X2X7XqXgXzXvXcXcXzXpX6X7X3X:XoXP.z.H 3 $ - @                                             ",
"q p @ . 6 *./.I.I.W.@X;X<X2X2X2X2X0XeXgXzXcXvXcXzXgX6X1X3X:X$XP.(.f.k $ X i X                                           ",
"> 1 . $ N l.P.A.A.[.*X2X2X2X8X2X>X1X6XfXkXxXcXxXjXaX0X2X<X>X2XE._.k.F $ . < <                                           ",
"p + . 4 i.G.E.Y.I.@X>X2X>X8X8X1X<X<X9XeXhXjXlXjXpXeX1X2X2X>X>XT.'.~.i.6 $ ; g @                                         ",
"e . % A j.P.T.A.U.5X2X2X2X2X2X<X<X4X1X9XrXyXyXyXwX9X1X2X2X2X=XT.R.`.h.N % & ; p < @ @ X X   X                           ",
"+ . 6 ;.G.I.A.A.U.*X2X2X8X2X2X<X<X2X<X1X3X7X7X3X3X3X<X2X2X>X{.D.R._.k.;.7 % $ < f ^ u 0 1 ; w X X @ X                   ",
"  % v h.H.L.A.I.U.*X2X2X8X2X2X1X<X2X<X<X1X<X1X1X1X3X4X2X2X>XI.A.Y.Z.J.z.U 7 % $ * < < @ @ o ; < e f i < X .             ",
". 3 P l.H.L.I.L.I.#X<X2X2X2X1X1X<X<X<X2X2X<X<X2X3X<X2X2X2XOXZ.E.Y.n.K.t.g.P x 6 3 % $ $ $ $ % % $ & o @ 1 e X X         ",
". 6 f.(.P.L.L.A.D.oX:X1X8X2X1X<X<X2X2X2X2X<X<X2X<X<X<X2X$XI.A.I.b.L.K.K.(./.s.| C v x l l k k 7 4 % $ . o o > 1 @       ",
"$ k j.^.Z.I.K.Z.A.W.+X1X8X2X1X3X2X2X2X2X<X2X<X2X<X2X2X-XW.A.I.Z.n.L.b.E.Z.S.~./.j.g.f.f.u.f.f.i.I B 7 6 % $   : f X     ",
"% b d.D.v.K.L.L.A.I.[.+X=X8X<X1X2X2X2X>X2X2X2X2X2X*X+X[.L.A.I.A.A.A.A.I.D.].I._.`.`..X.X(.J.J.J./.l.j.u.Z 6 $   @ i X   ",
"3 B e.I.I.v.L.L.I.A.L.[.#X2X2X<X>X2X2X>X2X2X2X2X2XoXI.Z.A.A.Z.I.I.I.A.D.D.E.#X*X2X:X:X>X>X&X$XoX_.S.S.(.j.p.6 $ . @ T   ",
"4 G 6.S.L.L.Z.L.n.L.L.I.E.{.#X>X>X>X2X2X2X>X+X[.I.I.L.A.L.A.L.I.T.D.A.I.}.=X4X2X2X2X>X>X2X2X2X2X-X[.m.K.J.k.a.n $   ; W ",
"6 G 6.B.I.L.A.L.L.L.I.A.Y.T.E.W.[.[.[.[.W.W.I.L.A.A.L.L.L.L.L.L.D.Z.].#X*X2X2X2X2X2X2X2X2X8X8X2X2X$XQ.L.L.D.`.y.6 . . h ",
"7 G =.w.K.I.I.I.K.L.I.A.Y.A.A.A.I.I.I.L.A.L.I.I.A.L.L.L.L.L.L.L.L.I.OX2X4X2X>X2X>X2X2X2X8X7X7X2X2X>X%Xn.b.A._.).I 3 . X ",
"7 G %.<.F.L.D.A.L.L.A.A.Y.Y.A.A.L.I.I.L.L.L.I.I.I.A.A.L.A.L.L.L.L.oX>X<X2X2X2X>X<X2X<X<X2X2X7X8X2X2X*XQ.Y.L.Z.(.h.l $   ",
"7 G ( 7.N.P.D.A.A.I.L.L.A.A.A.A.L.A.L.I.A.A.A.A.A.I.L.L.A.L.L.L.I.*X4X:X:X4X4X,X,X3X3X3X>X2X2X2X2X2X>X[.I.I.A.P./.*.4 . ",
"7 L ( 6.5.P.D.T.Y.A.L.K.K.A.A.A.I.L.A.I.D.I.I.I.I.I.L.L.L.L.L.L.W.:X4X4X4X4X,X3X3X,X,X<X>X>X>X>X>X>X=X[.Z.L.n.Z.V.z.7 $ ",
"7 G ( %.4.B.D.T.Y.A.K.K.P.I.I.I.L.A.A.A.A.A.D.A.I.I.I.I.L.L.A.I.{.>X2X<X2X<X2X2X2X2X2X2X2X<X<X<X3X<X=X}.I.A.n.n.U.l.v % ",
"6 F ( ` :.x.S.D.T.Y.K.K.K.K.L.A.L.A.L.I.L.A.A.A.I.I.I.I.L.L.L.I.OX2X2X2X2X2X>X>X2X2X2X2X2X2X1X3X,X<X#X'.D.A.b.!.Z./.&.6 ",
"4 M *.` :.3.c.P.T.T.A.K.K.L.A.A.L.L.L.L.L.L.L.L.A.D.D.D.I.I.I.I.[.*X2X2X2X2X2X2X2X2X2X>X>X2X<X2X<X$X].^.D.D.b.n.n.J.u.l ",
"% m S } O.2.3.B.D.T.A.L.I.L.I.A.A.I.L.L.L.L.L.L.I.I.A.A.I.I.I.L.L.#X2X2X>X2X2X2X8X4X2X2X2X2X2X>X$XQ.E.^.D.D.A.n.L.J.g.n ",
"$ 6 J } ' :.4.3.S.Z.L.L.L.L.D.D.L.L.L.L.I.I.I.I.I.I.A.L.L.L.A.L.L.OX>X4X2X<X2X1X<X2X:X<X4X4X>X*XQ.L.D.D.D.I.A.n.A.(.h.n ",
"  3 | ] ` %.4.2.M.B.K.I.L.Z.D.D.I.A.A.A.I.I.I.I.I.A.L.L.L.L.L.L.A.I.{.$X<X2X4X2X2X2X<X<X2X*XOXW.L.L.A.D.I.L.v.n.A.(.i.k ",
"  $ H  .[ ` >.4.2.M.B.K.K.I.D.D.D.D.A.A.A.A.A.A.I.L.L.L.L.L.L.L.I.Z.Z.I.oX$X*X>X>X2X>X*X#X[.I.L.m.L.A.I.L.m.L.n.A.~.&.7 ",
"  $ b .._ [ %.>.2.3.x.B.P.I.I.D.D.A.A.A.A.A.I.L.L.L.L.L.L.L.L.L.I.L.A.L.I.I.E.W.I.I.E.I.I.A.A.Z.L.L.I.L.L.n.n.L.S.d.A 4 ",
"  $ 4 G | [ ` >.4.4.3.x.N.V.S.D.D.A.A.A.A.A.L.L.L.L.L.L.L.L.n.L.A.A.L.L.L.L.L.A.I.I.L.A.I.I.L.A.L.L.L.L.b.b.n.K.C.a.x % ",
"< . % V J ) [ { <.2.3.3.3.x.B.S.P.P.P.P.P.L.L.L.L.L.L.L.A.b.A.A.A.I.L.A.A.I.I.L.A.A.I.A.A.A.A.I.L.L.A.L.n.n.v.V.e.&.4 $ ",
"f . . 6 G  .[ ' :.4.2.3.3.3.3.M.N.B.P.P.P.P.P.K.K.L.L.L.A.I.I.A.A.A.A.A.I.A.A.A.I.A.A.A.A.A.A.I.A.I.A.A.L.Z.Z.w.-.N % . ",
"1 ;   % m J _ [ } >.4.9.5.5.3.5.3.3.M.N.N.N.B.N.S.K.L.L.L.A.A.I.I.I.I.I.I.I.I.I.A.A.A.A.I.A.A.L.A.Z.L.A.S.B.M.8.I 6 .   ",
"X i X . 4 F S [ ` %.>.9.9.4.2.2.4.5.5.5.3.3.3.x.B.Z.K.K.L.A.A.I.A.A.A.A.A.A.A.A.A.I.I.I.I.A.A.A.K.Z.P.S.B.w.7.-.m % . 1 ",
"  @ 1 . % 8 H ( ( ` { 6.7.9.<.2.2.2.2.2.2.3.5.3.3.x.B.B.Z.A.I.I.I.A.A.L.A.L.L.L.L.L.L.A.A.A.K.K.K.P.B.B.0.8.-.Z 3 . o f ",
"    y < . % c G S ( ] +.7.8.<.4.2.2.2.2.9.2.4.3.3.3.x.N.B.S.P.P.I.I.I.L.A.A.A.A.A.L.K.K.P.P.S.K.B.B.M.0.8.-.G 6 . . 1 @ ",
"    @ p o $ 3 m U ( ] { =.6.<.4.9.9.9.5.9.9.2.4.5.4.3.3.M.N.V.V.P.P.I.I.I.L.K.Z.Z.K.P.P.P.K.B.B.c.4.2.7.-.J 8 $   - 1   ",
"      @ 1 o . 3 M D o.] [ { >.9.0.0.9.9.0.9.9.4.9.9.2.2.3.3.w.N.B.S.S.P.P.P.K.K.K.K.F.F.B.N.c.3.5.:.,.6.| b % . @ u .   ",
"        @ < . . 4 v D  ._ [ { $.9.9.9.9.9.9.9.9.9.4.q.2.4.2.2.3.3.x.M.N.B.B.B.B.B.c.c.x.3.5.5.2.<.>.{ ( C 4 . X u @     ",
"          @ 2 . $ 3 k F J  .[ { +.7.9.9.2.q.q.<.4.4.<.4.2.2.2.2.2.3.0.5.9.2.2.5.4.5.3.3.2.2.9.,.=.) J N 6 $ . 2 @       ",
"            @ 1 + . % 6 N H ..[ ] { +.>.7.<.q.<.2.4.2.4.4.2.9.0.9.9.9.9.2.2.4.2.2.:.:.9.9.>.+.[ ( H M 4 $ . < <         ",
"              @ p ; . $ 3 m F J ( ` ` ` >.8.7.9.9.3.3.0.0.9.0.0.9.4.4.2.2.2.3.2.4.7.7.6.{ [ [ ( A c 4 $ . < 1           ",
"                @ y 2 o $ % 4 z A S ( ( ) [ { $.9.#.#.9.0.9.9.9.<.q.4.4.2.2.:.@.+.} { ) ( *.S Z 7 3 $ $ 0 < X     O O   ",
"                  X < p ; & . $ 4 8 M L J ..X.[ { +.+.+.>.>.>.>.,.:.O.>.1.O.' } { ] X.| K A z 4 $ $ o p @         Q t   ",
"                      * Y p - + . $ % 6 c Z H |  .) [ ` [ ` ` ` ' } } ` ` ` [ )  .| J G M 8 % . . - i @           O O   ",
"          O #         . q * u u > o . . % 3 8 M A D (  .) ) ) ) [ ) [ [ X.X. .| K F M 6 % $ . @ u y @                   ",
"          Q dX:               @ u a 1 o . . . % 4 8 M F G H H H H H H H H A Z M 7 4 % $ . X < i @                       ",
"          # ! #                   X @ i 0 ; X       . % % 3 6 6 5 5 5 5 3 % % $ $ . $ . @ r < X                         ",
"                                          @ i - X X       . . . . .   .         o * > p < .                             ",
"                          O                     2 h > * * . X * * $ . o . X @ 1 f r ! #                                 ",
"                        , ~ ,                           1 f ^ ^ ^ / / ^ a <                                             "
};
