/* XPM */
static char * food_left_xpm[] = {
"60 60 235 2",
"  	c #010100",
". 	c #040B03",
"+ 	c #1B1B1A",
"@ 	c #333333",
"# 	c #141312",
"$ 	c #130201",
"% 	c #1B0201",
"& 	c #2B0302",
"* 	c #320403",
"= 	c #3B0302",
"- 	c #230302",
"; 	c #0B0302",
"> 	c #0B060B",
", 	c #231B23",
"' 	c #29292A",
") 	c #140D11",
"! 	c #300916",
"~ 	c #120B04",
"{ 	c #B0A100",
"] 	c #7D7200",
"^ 	c #0B0B0B",
"/ 	c #2B2B2B",
"( 	c #14120E",
"_ 	c #4A1208",
": 	c #54140A",
"< 	c #651B13",
"[ 	c #6D1D12",
"} 	c #6C2114",
"| 	c #591509",
"1 	c #530C09",
"2 	c #430504",
"3 	c #595001",
"4 	c #2E2A0C",
"5 	c #232423",
"6 	c #731C12",
"7 	c #841C14",
"8 	c #7C1D15",
"9 	c #7C1D0D",
"0 	c #892516",
"a 	c #851C0C",
"b 	c #9A2109",
"c 	c #9D2211",
"d 	c #A32312",
"e 	c #B4281C",
"f 	c #B62D22",
"g 	c #B43324",
"h 	c #A43424",
"i 	c #7E2215",
"j 	c #550C05",
"k 	c #521210",
"l 	c #871B18",
"m 	c #8B1B12",
"n 	c #95160B",
"o 	c #991706",
"p 	c #941B06",
"q 	c #AD2413",
"r 	c #AF280C",
"s 	c #BC2913",
"t 	c #CB2C14",
"u 	c #D32E1A",
"v 	c #DC3219",
"w 	c #DC2E1A",
"x 	c #DA2D22",
"y 	c #CC3422",
"z 	c #BA3926",
"A 	c #A83828",
"B 	c #8B2B16",
"C 	c #68190C",
"D 	c #0B0905",
"E 	c #2E302E",
"F 	c #87170B",
"G 	c #931A0A",
"H 	c #9A1A05",
"I 	c #A41D05",
"J 	c #AC2207",
"K 	c #B3280D",
"L 	c #B9290E",
"M 	c #C52A12",
"N 	c #CC3114",
"O 	c #D53215",
"P 	c #DB3115",
"Q 	c #D52E0D",
"R 	c #D52E14",
"S 	c #D4321A",
"T 	c #CC331D",
"U 	c #C5331C",
"V 	c #973324",
"W 	c #5E140C",
"X 	c #262926",
"Y 	c #040A0E",
"Z 	c #012747",
"` 	c #01050A",
" .	c #3C0A04",
"..	c #8C1B0B",
"+.	c #B5250C",
"@.	c #BA240C",
"#.	c #C2250D",
"$.	c #4B0B06",
"%.	c #05354F",
"&.	c #0959A0",
"*.	c #181918",
"=.	c #480C09",
"-.	c #A5230C",
";.	c #C42A0F",
">.	c #DB2E15",
",.	c #E22D1A",
"'.	c #E1341C",
").	c #C33324",
"!.	c #A92F22",
"~.	c #080C12",
"{.	c #9B1C0B",
"].	c #E12D16",
"^.	c #C92F21",
"/.	c #71200D",
"(.	c #C22611",
"_.	c #DA310E",
":.	c #D83A1D",
"<.	c #84241D",
"[.	c #781A0E",
"}.	c #E33A1D",
"|.	c #E94125",
"1.	c #F1452C",
"2.	c #F44D32",
"3.	c #EF4E31",
"4.	c #E44629",
"5.	c #E53C21",
"6.	c #D43625",
"7.	c #911712",
"8.	c #ED4A2E",
"9.	c #F55335",
"0.	c #FA5935",
"a.	c #FC553B",
"b.	c #FB5435",
"c.	c #DC441F",
"d.	c #63140C",
"e.	c #120B0B",
"f.	c #A21B0B",
"g.	c #B42512",
"h.	c #F6553B",
"i.	c #EB5834",
"j.	c #E34224",
"k.	c #9D3223",
"l.	c #440A05",
"m.	c #091315",
"n.	c #5B2C3C",
"o.	c #F94F3A",
"p.	c #FC5541",
"q.	c #F6593A",
"r.	c #E9401F",
"s.	c #0E110C",
"t.	c #0E6B7D",
"u.	c #AB2918",
"v.	c #CD2E19",
"w.	c #EA3D24",
"x.	c #F34B2C",
"y.	c #E73B1B",
"z.	c #C83827",
"A.	c #AA1D0D",
"B.	c #F7512E",
"C.	c #A5311C",
"D.	c #490603",
"E.	c #2E2E31",
"F.	c #B92513",
"G.	c #BC3523",
"H.	c #FB593C",
"I.	c #F65B47",
"J.	c #F65642",
"K.	c #F25A42",
"L.	c #EC5B47",
"M.	c #EE6555",
"N.	c #F15E57",
"O.	c #F99888",
"P.	c #FD938C",
"Q.	c #EE7462",
"R.	c #AA3423",
"S.	c #18040A",
"T.	c #773C80",
"U.	c #221E1E",
"V.	c #F16753",
"W.	c #FBA795",
"X.	c #FEBFB8",
"Y.	c #FEC9C5",
"Z.	c #FBB9A9",
"`.	c #EC755F",
" +	c #332D33",
".+	c #B42910",
"++	c #F47964",
"@+	c #FDD5C8",
"#+	c #FEDCD4",
"$+	c #FDDCD8",
"%+	c #921B12",
"&+	c #FDCBB6",
"*+	c #F24324",
"=+	c #330802",
"-+	c #F5664F",
";+	c #FB8C7A",
">+	c #CB391C",
",+	c #393833",
"'+	c #B41F12",
")+	c #F9806D",
"!+	c #3B3B3A",
"~+	c #F64B32",
"{+	c #992721",
"]+	c #DC2E0E",
"^+	c #EC4429",
"/+	c #484446",
"(+	c #98261B",
"_+	c #2F3130",
":+	c #2B0B03",
"<+	c #AD250C",
"[+	c #E3271B",
"}+	c #E32B21",
"|+	c #DC3322",
"1+	c #B73628",
"2+	c #504148",
"3+	c #E33522",
"4+	c #BC341A",
"5+	c #A22006",
"6+	c #E93D29",
"7+	c #F55936",
"8+	c #A91C0C",
"9+	c #791B16",
"0+	c #630C08",
"a+	c #1D2223",
"b+	c #D24226",
"c+	c #D6320F",
"d+	c #792619",
"e+	c #8C3428",
"f+	c #A42B22",
"g+	c #E02F0D",
"h+	c #530202",
"i+	c #C52C1A",
"j+	c #01233F",
"k+	c #3C413B",
"l+	c #5F5925",
"                                  . + @ #         $ % & * = = = = = * & - % $ ; ;   > , ' ) ! ;             ~ { ] ;     ",
"                                ^ / ( ; ; $ $ $ - * _ : < [ } [ [ [ [ [ | 1 2 * - % ; ; > + ' ^             . 3 4       ",
"                            ^ 5 + .   ; % & 1 6 7 8 9 0 a a a a b c d d e f g h i j * % ; ; ^ 5 + .           ;         ",
"                          ^ ' # ; ; % * k [ l m n o o p p b d q r s t u v w x y z A B C & $ ; D ^ E ^                   ",
"                        ^ + D ; % & _ [ 8 7 F G p H I J J K L M N O v P v Q R S T T U g V W * $ ; ^ X ^                 ",
"      Y Z `           ^ # D $ %  .< 8 m ..G G p b J +.@.#.t S S P v P P Q O v P P P v S U z 0 $.- ; D # ^               ",
"      %.&.Y         ^ *.; ; - =.6 9 F G G p b -.K K @.;.u w w w w v >.R P P O P v >.>.,.'.S ).!.C * $ . *..             ",
"      Y ~.        ^ + ; ; - _ [ a G G H {.-.-.K +.@.t S w ,.,.>.>.v P P P P R >.P v >.>.].>.v ^.g i  .$ D 5 ^           ",
"                ^ ' > $ & : /.9 a p o J r K +.+.(.u w ,.,.].].>.P O P _.v >.>.w v :.:.:.v >.v >.T g <.= % D ' ^         ",
"              . 5 ( ; - j [.a a p b -.K +.K @.(.t R ,.,.].>.>.v P P P P >.v }.|.1.2.2.3.4.5.}.P >.6.f 8 * ; ^ /         ",
"              # *.; % 2 [.7.n n {.-.K +.@.@.#.t O P >.>.O O P P >.v v P P 5.8.9.0.a.a.a.b.2.4.c.:.v x g d.& ; # ^       ",
"          ; e.' D $ * < m n {.f.d g.g.@.@.#.t O v P P O O O O P >.>.>.v 5.8.h.h.a.a.a.a.a.a.i.i.j.v >.y k.l.$ D '       ",
"m.        ! n.( $ - W 8 F G c q q g.L @.@.M S O P P v O O S O >.].].].'.1.o.p.p.a.p.p.a.b.a.0.q.9.r.v S z i & ; s.#     ",
"t.`       e.' ~ % _ 6 m G {.d u.g.K L @.#.v.v v R P P P O v >.>.].>.,.w.a.p.a.a.a.a.a.a.p.a.a.0.0.x.y.v y h j % D /     ",
"m.        X s.; & < l G {.-.r r r +.@.@.t u v w w w v >.P v >.>.>.>.'.1.a.0.h.h.h.a.a.a.p.p.a.b.0.0.x.'.S z.0 & ; s.#   ",
"        ^ X > $ l.8 G {.A.g.K K +.+.L (.u w w w w w >.>.>.v >.>.>.>.}.b.0.h.q.0.h.h.0.0.h.a.a.a.0.0.B.w.'.y C.D.$ ^ E.  ",
"        X ) ; & C a n f.g.F.g.+.+.K @.M S w w w v P >.P P P v P P v 5.b.b.a.a.0.0.0.0.0.0.b.a.a.0.0.B.x.'.S G.C $ . @   ",
"      . E D $  .9 p {.q g.F.g.+.+.L @.t S >.>.w >.P v P >.>.P >.v v 5.b.a.a.a.a.0.a.a.H.0.h.I.J.0.b.b.b.5.:.U 0 %   +   ",
"      ^ + ; % : a p f.g.g.g.g.+.+.L (.S S >.>.>.>.P P P P >.>.P v v 5.a.a.a.a.a.0.0.0.h.K.L.M.N.J.H.a.9.j.:.v.C.-   e.) ",
"      / D ; * } a p -.g.g.g.L +.+.L M S S >.>.>.>.P P P v >.v v P P 5.a.b.b.a.a.a.0.h.K.M.O.P.P.Q.L.I.h.4.:.u R.* ; S.T.",
"      U.; % =.8 ..-.q +.g.F.g.g.+.@.M S S >.>.>.v v P P P >.w >.P >.}.a.a.a.0.a.a.h.q.V.W.X.Y.Y.Z.`.L.p.1.v S C.2 ; ;  +",
"    ^ ( ; - d.l G u.r .+g.g.g.+.@.@.M S P >.>.>.v v P P >.>.v >.P P }.b.a.a.a.0.0.0.J.++Z.@+#+$+@+O.V.a.1.v S C. .; ; ' ",
"    / . ;  .6 %+{.q .+.+g.g.+.K L @.t S P P v >.v v P P >.w v >.v v v 8.a.a.0.0.0.h.J.++&+#+$+#+@+W.M.a.*+P O C.=+  . + ",
"    s.  % : 7 G A.g.r r g.K K @.@.#.M O P P P >.v v P P >.>.v >.v v P 5.a.a.a.a.a.h.q.++Z.@+#+#+&+O.-+a.*+P N k.&   Y ^ ",
"  *..   & C m {.g.g.+.K g.g.L @.@.t u O P P P v v v v >.v v v >.v >.>.v a.a.0.0.q.h.q.-+;+Z.Y.Y.W.`.K.b.y.v >+B -   ~.  ",
"  ,+.    .[...f.'+@.K K K g.K @.#.R O P P P P P >.v v w v v v v >.P >.v |.2.a.0.0.q.q.K.M.)+P.;+Q.L.9.2.}.N G.[.%   *.  ",
"  )   ; : a G f.'+@.+.r .++.@.#.t O P P P P P P P >.>.w v v P P >.P P P v 8.a.0.a.H.0.h.h.I.L.L.J.p.a.4.v U h D.$ ^ !+  ",
"  e.  % < m p f.g.F.K K +.+.@.M t O P P P P P P P P >.w v v P P P P P >.R 5.~+a.a.a.a.a.a.a.h.J.a.a.8.:.S g 6 - ; ^ #   ",
"+ e.  % [ ..G -.F.F.K +.K @.(.t R P P >.>.P P P P P v v P P P >.>.P P P >.P }.x.a.a.a.a.a.0.q.q.0.2.j.6.z.{+= ; D !+    ",
"@ ; ; - 6 ..p -.g.g.+.+.+.@.M u >.>.>.v ]+P P P P P v v P P P P P P P >.>.>.>.v ^+b.b.a.b.b.9.9.2.4.T G.V 2 $ D ^       ",
"/+. ; * 6 ..p -.g.F.g.+.+.s v.S v >.>.v >._.P P P >.v v P >.P P P P P P R v v >.R v w.o.b.a.x.|.:.S ).(+ .%   > +       ",
"/+e.; * 6 ..p -.g.F.F.+.@.M v.S v v v >.>.P P P P P P v v v P P P P P v v >.R v '.>.w ,.,.'.S S y G.(+D.$   # _+        ",
"/+e.; :+6 G H <+r g.g.+.@.t S v v >.v >.>.>.v v >.P P 5.^+w.}.v P P w ,.v >._.]+].].[+[+}+|+y 1+h d.* $   ^ E..         ",
"2+$ ; :+6 ..o J .+K g.@.#.u S v >.>.v >.v >.P R v ^+1.2.a.b.9.2.|.v R w v >.P P _.R |+6.^.G.h 6 2 - ; D ( X .           ",
"2+;   :+6 G o I K K g.F.(.u v v >.>.v >.P P >.R w.b.a.a.a.a.H.H.b.^+3+>.>.>.]+O O >+G.A V < 2 - $ $ D + #               ",
"/+D ; :+6 G p -.K +.g.L M S v P P >.v >.>.P P v x.H.a.a.a.0.H.9.0.a.1.v w v '.O 4+1+B W * $ $ $ D # E ^                 ",
"E ;   - 6 %+p 5++.+.+.g.t S v >.>.>.v v >.P v |.0.a.b.a.a.a.H.9.a.H.2.6+w w R y R./.= % $ ; . s./ ^                     ",
"# .   % C %+p I +.+.+.+.t S P >.P >.v >.v P v x.a.0.a.a.a.0.H.H.a.a.a.o.'.3+u ).i = % ~ ( # / ^ .                       ",
"  ^   % d.m G H J @.K +.t O O >.P >.v >.v P '.2.H.a.a.a.b.a.7+H.a.b.a.H.1.v ^.!.$.% $ ( !+# .     S.S.                  ",
"  +   $ : 7 ..o 8++.+.L t O R >.P >.v >.P >.}.b.a.h.a.a.b.a.q.7+b.a.a.a.2.|+).7 * $ # ' ^                               ",
"  @ D $ = 9+m {.f.K +.K t O R >.P >.>.v >.v v b.a.0.p.a.a.a.q.7+0.b.a.a.a.6.g 0+- e.@ #                                 ",
"  a+e.; & < 7 n o q J L ;.O O P P v >.>.>.v v a.a.a.H.a.a.a.7+q.a.a.a.a.9.6.R.j % # /+^                                 ",
"  %.) $ % : 8 %+{.q J @.;.N S O P v >.>.v P '.b.0.9.a.a.a.a.7+q.0.a.a.b.9.b+h $.$ # X ^                                 ",
"  Y ' ; $ * [ 7 ..d g.@.#.N S O >.v >.>.>.>.v 2.0.0.a.b.a.a.0.q.0.a.a.b.b.b+h D.$ ^ U..                                 ",
"    # ^ ; % : 9+a {.g.+.@.t S S >.v v >.>.v v 1.a.H.a.b.a.a.b.b.a.p.a.a.b.y k.D.$ ^ + .                                 ",
"    ; a+. $  .C 0 G -.+.L M O S >.>.>.>.>.v >.5.2.H.a.a.a.0.b.a.a.J.p.a.B.>+h 2 $ D (                                   ",
"      # # ; % l.9 G f.g.L ;.t u O >.>.>.>.P >.v ^+b.a.0.h.0.b.a.J.J.p.a.x.>+h 2 % ( 4 .                                 ",
"      . / ^ ; & d.a G <++.@.t O O >.P v v >.R P }.2.b.a.q.0.b.a.p.a.a.a.|.>+V = % # .                                   ",
"        ^ X ; $ = C a c r L ;.t O O >.>.P P P c+P y.x.0.7+q.b.a.a.a.a.~+|+).d+& $ , .                                   ",
"          5 s.$ - =.6 ..-.J K t S R R v P P P P P P y.x.0.0.b.a.a.b.x.5.u z | % ~ @ ^                                   ",
"          ^ / D $ & : 8 {.<++.(.t S P >.>.P v >.>.w '.3+1.o.o.b.2.*+y.c+u g = $ D / .                                   ",
"            ^ ' $ $ & W a d q F.t u >.>.P P P v w w x x }+6+5.5.y._.P O y k.* ; ^ #                                     ",
"              ^ U.; $ * 0+7 (+u.F.t u P _.]+P P v w w w w v R v ].]+P >+g d.% D + .                                     ",
"                # # ; $ & 1 8 (+u.s t R _.]+_.c+P v w w >.>.P v P >.w G.e+* $ D , ;                                     ",
"                . + # ; ; %  .[ (+q (.R Q _._.P Q >.>.]+]+_._.>.R |+6.f+* $   ) .                                       ",
"                    # *.. ; $ * d.(+u.s v.O P _._._._._.g+_.R S y z.{+h+$   ~.+ .                                       ",
"                      ^ X ^   ; - _ d+(+e i+u >.>.>.P _.R :.v.).A d+* $ ; ^ @ ^                                         ",
"            ` Z `       ^ X s.; ; % * W <.f+f ^.y y >+>+).z 1+0 D.- ;   ^ / .                                           ",
"            ` j+`         ; + + D ; ; % & $.C <.V A R.k.<.j = & $ ; ; ( k+.                                             ",
"                              ^ @ +   ; $ % & = 2 h+h+D.* % $ ;   . ,+l+                                                "};
