/* XPM */
static char * player_left_xpm[] = {
"60 60 568 2",
"  	c #000000",
". 	c #040105",
"+ 	c #8B399C",
"@ 	c #010001",
"# 	c #311335",
"$ 	c #010100",
"% 	c #3B3502",
"& 	c #867A01",
"* 	c #020100",
"= 	c #605602",
"- 	c #C0AF01",
"; 	c #020200",
"> 	c #070600",
", 	c #030000",
"' 	c #530C04",
") 	c #020202",
"! 	c #050202",
"~ 	c #010101",
"{ 	c #3E3D3E",
"] 	c #3C3C3C",
"^ 	c #343434",
"/ 	c #353535",
"( 	c #303030",
"_ 	c #2E2E2E",
": 	c #313130",
"< 	c #313131",
"[ 	c #3B3B3B",
"} 	c #2B2B2B",
"| 	c #2C2C2C",
"1 	c #0E0D0D",
"2 	c #000100",
"3 	c #010000",
"4 	c #191918",
"5 	c #3D3D3D",
"6 	c #282828",
"7 	c #040403",
"8 	c #050101",
"9 	c #130202",
"0 	c #2B0405",
"a 	c #3A0506",
"b 	c #3F0707",
"c 	c #3F0607",
"d 	c #3C0507",
"e 	c #360505",
"f 	c #230404",
"g 	c #0D0101",
"h 	c #020000",
"i 	c #050504",
"j 	c #373737",
"k 	c #060806",
"l 	c #080A08",
"m 	c #000001",
"n 	c #160303",
"o 	c #560808",
"p 	c #940D0D",
"q 	c #B3100F",
"r 	c #BD1011",
"s 	c #C21111",
"t 	c #C31112",
"u 	c #BF1111",
"v 	c #BE1111",
"w 	c #BC110F",
"x 	c #BB1110",
"y 	c #AD0F0F",
"z 	c #800B0B",
"A 	c #310505",
"B 	c #393939",
"C 	c #0D0D0D",
"D 	c #060101",
"E 	c #430707",
"F 	c #A10E0E",
"G 	c #C51111",
"H 	c #C81210",
"I 	c #C51112",
"J 	c #C81111",
"K 	c #B40F0F",
"L 	c #4B0708",
"M 	c #3C3B3C",
"N 	c #181817",
"O 	c #0D0202",
"P 	c #620908",
"Q 	c #B8100F",
"R 	c #C51110",
"S 	c #C41111",
"T 	c #C41110",
"U 	c #C61211",
"V 	c #C61111",
"W 	c #B41010",
"X 	c #420707",
"Y 	c #191917",
"Z 	c #0C0C0B",
"` 	c #030001",
" .	c #4F0C23",
"..	c #0C0C0C",
"+.	c #070906",
"@.	c #210404",
"#.	c #5F0807",
"$.	c #600808",
"%.	c #5B0808",
"&.	c #580808",
"*.	c #5D0808",
"=.	c #600908",
"-.	c #650909",
";.	c #6F0A09",
">.	c #7C0A0A",
",.	c #930D0D",
"'.	c #A80E0F",
").	c #C81211",
"!.	c #990D0D",
"~.	c #170303",
"{.	c #020302",
"].	c #0B0B0B",
"^.	c #131313",
"/.	c #000101",
"(.	c #010202",
"_.	c #020304",
":.	c #030607",
"<.	c #020607",
"[.	c #010405",
"}.	c #010404",
"|.	c #010203",
"1.	c #000202",
"2.	c #000102",
"3.	c #030101",
"4.	c #130303",
"5.	c #330506",
"6.	c #730A08",
"7.	c #BA1010",
"8.	c #BD1110",
"9.	c #490708",
"0.	c #262727",
"a.	c #020002",
"b.	c #1D1D1D",
"c.	c #0E1315",
"d.	c #2B393F",
"e.	c #495F68",
"f.	c #5E7A86",
"g.	c #678593",
"h.	c #688794",
"i.	c #688693",
"j.	c #5F7B87",
"k.	c #58737F",
"l.	c #4D6772",
"m.	c #435861",
"n.	c #35464E",
"o.	c #232E33",
"p.	c #0C0101",
"q.	c #540808",
"r.	c #BF1011",
"s.	c #C21112",
"t.	c #6E0909",
"u.	c #141414",
"v.	c #481C51",
"w.	c #050106",
"x.	c #060906",
"y.	c #161D20",
"z.	c #6F8B97",
"A.	c #B3D1DE",
"B.	c #D3E7EF",
"C.	c #DAECF3",
"D.	c #DDEEF5",
"E.	c #DEEEF5",
"F.	c #D7EAF2",
"G.	c #B6D7E6",
"H.	c #9AC9DD",
"I.	c #98C7DB",
"J.	c #95C4D8",
"K.	c #8BB9CC",
"L.	c #6A8A98",
"M.	c #1C272A",
"N.	c #8D0C0C",
"O.	c #C71211",
"P.	c #830B0B",
"Q.	c #040603",
"R.	c #272728",
"S.	c #020101",
"T.	c #383838",
"U.	c #242F34",
"V.	c #84A6B5",
"W.	c #E5F1F6",
"X.	c #FCFDFE",
"Y.	c #FDFEFE",
"Z.	c #F2F8F9",
"`.	c #A8D0E2",
" +	c #97C7DB",
".+	c #99C8DC",
"++	c #94C2D6",
"@+	c #516E79",
"#+	c #0F1417",
"$+	c #8B0C0C",
"%+	c #250404",
"&+	c #3A3A3A",
"*+	c #030302",
"=+	c #323232",
"-+	c #090B09",
";+	c #141A1D",
">+	c #7398A8",
",+	c #A6CEE0",
"'+	c #E7F2F5",
")+	c #F4FAFB",
"!+	c #F5FAFB",
"~+	c #F6FBFC",
"{+	c #EAF4F5",
"]+	c #EAF3F5",
"^+	c #E9F3F5",
"/+	c #D0E6EE",
"(+	c #9CC9DD",
"_+	c #98C8DC",
":+	c #98C8DD",
"<+	c #80A8BA",
"[+	c #4F6C77",
"}+	c #263339",
"|+	c #680908",
"1+	c #380606",
"2+	c #363636",
"3+	c #1E1E1E",
"4+	c #3B4C55",
"5+	c #95C3D7",
"6+	c #98C9DE",
"7+	c #A5CEE1",
"8+	c #ABD2E3",
"9+	c #ADD3E3",
"0+	c #AFD4E4",
"a+	c #ACD2E3",
"b+	c #A2CCE0",
"c+	c #9DCADE",
"d+	c #9ECADE",
"e+	c #86B1C4",
"f+	c #5B7986",
"g+	c #4A656E",
"h+	c #32434B",
"i+	c #020303",
"j+	c #8C0C0C",
"k+	c #4A0607",
"l+	c #0A0A0A",
"m+	c #212121",
"n+	c #252525",
"o+	c #020201",
"p+	c #2D3D44",
"q+	c #698A99",
"r+	c #83ABBD",
"s+	c #93C0D4",
"t+	c #96C6DA",
"u+	c #99C9DD",
"v+	c #99C8DD",
"w+	c #93C1D5",
"x+	c #7AA1B1",
"y+	c #54707C",
"z+	c #49646D",
"A+	c #4B6670",
"B+	c #890C0C",
"C+	c #5A0908",
"D+	c #0A0101",
"E+	c #28353C",
"F+	c #4A6570",
"G+	c #506B76",
"H+	c #5C7A87",
"I+	c #678895",
"J+	c #6F94A5",
"K+	c #79A0B0",
"L+	c #81AABB",
"M+	c #84B0C2",
"N+	c #8AB5C8",
"O+	c #8AB4C7",
"P+	c #84AEC0",
"Q+	c #769CAD",
"R+	c #61808C",
"S+	c #4D6874",
"T+	c #253237",
"U+	c #750A09",
"V+	c #C01011",
"W+	c #860B0B",
"X+	c #650908",
"Y+	c #120202",
"Z+	c #1C0303",
"`+	c #710A09",
" @	c #7B0A0A",
".@	c #260404",
"+@	c #404040",
"@@	c #161E22",
"#@	c #445A64",
"$@	c #49656E",
"%@	c #4B6772",
"&@	c #4F6A75",
"*@	c #516D77",
"=@	c #4E6974",
"-@	c #3D5158",
";@	c #0B0F10",
">@	c #070202",
",@	c #960D0C",
"'@	c #BC1110",
")@	c #850B0A",
"!@	c #6C0909",
"~@	c #2A0405",
"{@	c #B91010",
"]@	c #8E0D0C",
"^@	c #0E0202",
"/@	c #534B01",
"(@	c #AB9C01",
"_@	c #070500",
":@	c #232323",
"<@	c #101010",
"[@	c #151D1F",
"}@	c #35474E",
"|@	c #455C66",
"1@	c #4B6671",
"2@	c #4B6570",
"3@	c #3C5058",
"4@	c #111619",
"5@	c #3A0607",
"6@	c #7F0A0A",
"7@	c #740A08",
"8@	c #200303",
"9@	c #1D0303",
"0@	c #AC0F0E",
"a@	c #BB1010",
"b@	c #030303",
"c@	c #5E3C36",
"d@	c #4E4702",
"e@	c #070907",
"f@	c #13191C",
"g@	c #354850",
"h@	c #435962",
"i@	c #47616A",
"j@	c #48626B",
"k@	c #48636C",
"l@	c #4A646E",
"m@	c #425760",
"n@	c #2B3A41",
"o@	c #0F1617",
"p@	c #1F0303",
"q@	c #950D0D",
"r@	c #B2100E",
"s@	c #7A0A0A",
"t@	c #210303",
"u@	c #A20D0D",
"v@	c #BA100F",
"w@	c #4A0707",
"x@	c #373635",
"y@	c #181816",
"z@	c #2A2A2A",
"A@	c #040605",
"B@	c #0E1314",
"C@	c #1C262A",
"D@	c #202A2E",
"E@	c #263338",
"F@	c #28343A",
"G@	c #263337",
"H@	c #1A2326",
"I@	c #0C1011",
"J@	c #770A0A",
"K@	c #A80E0E",
"L@	c #780A0A",
"M@	c #0B0202",
"N@	c #740A09",
"O@	c #9A0D0D",
"P@	c #990D0C",
"Q@	c #460705",
"R@	c #300505",
"S@	c #320505",
"T@	c #190303",
"U@	c #050000",
"V@	c #0F0202",
"W@	c #2D0405",
"X@	c #800B0A",
"Y@	c #740A07",
"Z@	c #220403",
"`@	c #070101",
" #	c #5B0807",
".#	c #770A09",
"+#	c #4D0707",
"@#	c #373636",
"##	c #060000",
"$#	c #A30D0D",
"%#	c #880B0B",
"&#	c #6B0909",
"*#	c #550807",
"=#	c #420607",
"-#	c #310404",
";#	c #370505",
">#	c #470707",
",#	c #B5100F",
"'#	c #850B0B",
")#	c #260403",
"!#	c #0A0202",
"~#	c #790A0A",
"{#	c #540708",
"]#	c #C71111",
"^#	c #BC1010",
"/#	c #BE1011",
"(#	c #C31111",
"_#	c #AB0E10",
":#	c #770B0B",
"<#	c #270404",
"[#	c #0C0202",
"}#	c #610807",
"|#	c #540707",
"1#	c #BD1010",
"2#	c #980D0D",
"3#	c #780A09",
"4#	c #760A09",
"5#	c #240404",
"6#	c #080101",
"7#	c #5B0707",
"8#	c #550607",
"9#	c #2F2F2F",
"0#	c #4A0708",
"a#	c #B00F0F",
"b#	c #BD1111",
"c#	c #840B0A",
"d#	c #780B0B",
"e#	c #5A0807",
"f#	c #5C0807",
"g#	c #202020",
"h#	c #560608",
"i#	c #A00D0E",
"j#	c #AC0F10",
"k#	c #630807",
"l#	c #090202",
"m#	c #090A0A",
"n#	c #8E0C0D",
"o#	c #970D0D",
"p#	c #230403",
"q#	c #670909",
"r#	c #292929",
"s#	c #1A1A1A",
"t#	c #4D0607",
"u#	c #B20F0E",
"v#	c #080A09",
"w#	c #490606",
"x#	c #8F0C0C",
"y#	c #B91110",
"z#	c #8A0C0C",
"A#	c #2C0405",
"B#	c #630908",
"C#	c #3D0606",
"D#	c #920D0C",
"E#	c #AB0F0F",
"F#	c #120303",
"G#	c #690909",
"H#	c #070201",
"I#	c #770B0A",
"J#	c #860B0A",
"K#	c #9C0D0D",
"L#	c #AF0F0F",
"M#	c #C01111",
"N#	c #BC1111",
"O#	c #B81010",
"P#	c #AE0F0F",
"Q#	c #A30E0E",
"R#	c #150303",
"S#	c #6A0909",
"T#	c #590808",
"U#	c #6A3609",
"V#	c #070200",
"W#	c #3E3E3E",
"X#	c #820B0B",
"Y#	c #870B0B",
"Z#	c #870B0A",
"`#	c #850B09",
" $	c #7A0A09",
".$	c #1B0303",
"+$	c #6B0908",
"@$	c #450706",
"#$	c #3F3E40",
"$$	c #780B0A",
"%$	c #720A0A",
"&$	c #1E0303",
"*$	c #1E0403",
"=$	c #740A0A",
"-$	c #050705",
";$	c #333334",
">$	c #683509",
",$	c #4B0707",
"'$	c #750A0A",
")$	c #720A08",
"!$	c #1A0303",
"~$	c #180303",
"{$	c #5D0807",
"]$	c #4F0707",
"^$	c #202021",
"/$	c #0A0B0A",
"($	c #351804",
"_$	c #510707",
":$	c #450707",
"<$	c #500707",
"[$	c #490707",
"}$	c #400606",
"|$	c #350506",
"1$	c #520707",
"2$	c #68090A",
"3$	c #100202",
"4$	c #680909",
"5$	c #6E0A09",
"6$	c #600807",
"7$	c #2A2A2B",
"8$	c #4F0A05",
"9$	c #040000",
"0$	c #730A09",
"a$	c #1E1F1F",
"b$	c #530707",
"c$	c #0D0D0C",
"d$	c #661302",
"e$	c #560707",
"f$	c #590807",
"g$	c #171715",
"h$	c #161615",
"i$	c #050704",
"j$	c #3F0606",
"k$	c #080907",
"l$	c #540607",
"m$	c #5E0807",
"n$	c #330505",
"o$	c #040101",
"p$	c #3D3D3E",
"q$	c #262626",
"r$	c #2D2D2D",
"s$	c #390506",
"t$	c #69090A",
"u$	c #6B090A",
"v$	c #3C3B3D",
"w$	c #1A1A18",
"x$	c #090101",
"y$	c #5A0808",
"z$	c #1B1B1B",
"A$	c #050806",
"B$	c #242525",
"C$	c #300404",
"D$	c #710A0A",
"E$	c #540706",
"F$	c #060705",
"G$	c #0B0C0C",
"H$	c #0C0B0C",
"I$	c #100F0F",
"J$	c #222222",
"K$	c #550707",
"L$	c #580807",
"M$	c #460606",
"N$	c #111111",
"O$	c #010201",
"P$	c #3F3E3F",
"Q$	c #032D51",
"R$	c #032E53",
"S$	c #711433",
"T$	c #0C040D",
"U$	c #2B0611",
"V$	c #000308",
"W$	c #0F0C01",
"X$	c #47194E",
"Y$	c #61276C",
"Z$	c #020003",
"`$	c #010815",
" %	c #0C70C6",
".%	c #032D53",
"+%	c #000205",
"@%	c #A99A01",
"#%	c #000002",
"$%	c #020102",
"%%	c #010205",
"&%	c #044176",
"*%	c #141000",
"=%	c #C4B402",
"-%	c #010305",
";%	c #0A4956",
">%	c #141001",
",%	c #010C10",
"'%	c #010507",
")%	c #1092AB",
"                                                                              . + .                                     ",
"                                                                              @ # @                                     ",
"                                                                                                                        ",
"                                                                                                                  $ % & ",
"                                                                                                                  * = - ",
"                                                                                                                    ; > ",
"                                                                    , '                                                 ",
"                                            ) ) ) ) ) ) ) ) ) ) ) ) ) !                                                 ",
"                                          ~ { ] ^ ^ / ^ ( _ : _ < ^ [ ^                                                 ",
"                                    ~ } | 1 2       3 3 3 3             4 5 )                                           ",
"                                    6 7 ) $ 8 9 0 a b c c d a a e f g h ~ i j )                                         ",
"                                k l ~   m n o p q r s t u v w v x y z A     ~ B )                                       ",
"                              C ~     D E F G H G I I I I I I I G G J K L 8   ~ M ~                                   3 ",
"                          ~ N ~     O P Q R S T S G G U V G G I I I I G W X h   Y Z                                 `  .",
"                          ..+.    3 @.#.$.%.&.*.=.-.;.>.,.'.v V G I I I ).!.~.  {.[                                   3 ",
"                        ].^.    /.(._.:.<.[.}.|.1.2././.3.4.5.6.7.I I I I 8.9.  ~ 0.a.                                  ",
"                      Z b.) ~ c.d.e.f.g.h.i.j.k.l.m.n.o.c.) * p.q.r.G I I s.t.3 ~ u.v.w.                                ",
"                    x.|   ~ y.z.A.B.C.C.D.E.F.G.H.I.J.K.L.M.    D N.O.I I t P.n $ Q.R.S.                                ",
"                  ) T.~ /.U.V.W.X.Y.Y.Y.Y.Y.Y.Z.`. +I..+++@+#+~   ;.U I I t $+%+3   &+*+2                               ",
"                  =+-+  ;+>+,+'+)+!+~+!+{+]+^+/+(+I._+:+<+[+}+(.2 |+U I I t N.1+h   -+2+3+~ ~ ) ~                       ",
"                  ] )   4+5+6+7+8+9+0+a+b+c+d+H.I.I..+e+f+g+h+i+2 -.U I I t j+k+,     ~ l+Y m+| n+o+                    ",
"                  | ~   p+q+r+s+t+_+:+_+:+u+:+v+v+w+x+y+z+A+h+_./.-.U I I t B+C+D+    , , h     ~ < ~                   ",
"                  ^ )   E+F+G+H+I+J+K+L+M+N+O+P+Q+R+S+z+z+z+T+(.  U+V I I V+W+X+Y+  Z+`+ @|+.@$   7 }                   ",
"                  +@)   @@#@z+z+z+z+$@%@&@*@*@=@g+z+z+z+F+-@;@2 >@,@O.I I '@)@!@Z+  ~@{@).).]@^@  ) B                   ",
"/@(@_@            :@<@    [@}@|@z+F+1@z+z+z+z+z+z+z+z+2@3@4@  h 5@8.S I G 7.6@7@8@  9@0@G G a@e   b@c@                  ",
"_@d@S.            ) T.*+  ~ e@f@}+g@h@i@j@k@k@l@k@i@m@n@o@~ 3 p@q@G I I G r@s@7@t@  ~.u@V S v@w@  ) x@                  ",
"  S.                y@z@        /.A@B@y.C@D@E@F@G@H@I@{.    O J@S I I I G K@L@7@8@  M@N@O@P@$+Q@  ) ^                   ",
"                    ) +@  h R@&.S@T@U@h 3 3       3 3 , V@W@X@t I I I I I ,@L@Y@Z@  `@ #J@J@.#+#  ) @#                  ",
"                    ) [   ##P G Q $#%#&#*#=#S@A -#;#>#&#p ,#T I I I I G '@'#L@U+)#  !##.L@~#L@{#  ) ^                   ",
"                    ) |   U@&.V G V ]#V T s ^#x x /#(#O.]#G I I I I I G _#s@:#U+<#  [#}#L@L@L@|#  ) ^                   ",
"                    x.Y   , w@1#G I I I I I G G I I I I I I I I I I I I 2#3#L@4#5#  6#7#~#L@L@8#  ) 9#                  ",
"                    u.u.  , 0#a#S I I I I I I I I I I I I I I I I I G b#c#L@d#4#<#  h e#L@~#L@f#  ) |                   ",
"                    g#..  U@h#i#S I I I I I I I I I I I I I I I I I G j#~#d#:#4#<#3 ,  #L@L@L@k#l#) |                   ",
"                  $ z@m#  U@h#n#s I I I I I I I I I I I I I I I I I S o#~#:#:#4#p#  6# #~#L@~#q#!#) r#                  ",
"                    s#..  , t#>.a#G I I I I I I I I I I I I I I I G u# @d#L@:#U+%+  M@#.~#L@L@k#l#~ :@                  ",
"                    v#Y   , w#~#x#1#G I I I I I I I I I I I I I G y#z#~#d#:#L@L@A#  O B#L@L@L@#.8 ~ :@                  ",
"                    ~ :@  h C#L@L@D#a@S G G I I I I I I G G G s E#c#~#L@L@:#L@L@A#  F#G#~#L@L@f#3.) |                   ",
"            H#      ) ^   h 0 I#:#L@J#K#L#a@s (#(#s M#N#O#P#Q#x# @L@L@:#L@:#:#U+.@3 R#S#~#L@L@T#  ) ^                   ",
"          @ U#V#    ) W#  3 9@6.L@L@L@~#s@X#Y#z#z#Z#`#X# $~#L@L@L@L@:#L@:#d#:#U+p#  .$+$~#L@J@@$  ) #$m                 ",
"          m m       ) ^   3 ^@X+L@L@L@L@L@~#L@~#~#L@~#L@$$d#:#L@L@:#:#:#d#d#L@%$&$  *$=$~#L@q#Z+  -$;$>$V#              ",
"                    ~ u...2   ,$J@:#I#J@J@.#J@J@J@J@J@'$)$N@J@d#L@L@:#:#L@L@~#!@!$  ~${$X+]$t@3 ~ ^$/$($h               ",
"                        :@~   ~@N@:#6._$:$,$_$<$[$}$|$~@Z@f 1$L@L@:#L@L@:#L@~#2$n     O 3$h     k [ ~ 3                 ",
"                        &+)   4.4$~#J@#.0 l#                Z+5$L@:#:#:#d#L@~#6$O     ~ ~ ~ +.7$^ o+              8$9$  ",
"                        9#)   6#7#~#L@L@0${$S@3   ) b.a$~   F#2$~#d#:#L@:#L@~#b$U@  -+z@| z@c$) )                 d$##  ",
"                        ~     h e$~#L@L@L@~#f$,   g$h$[ i$  4.2$~#L@d#d#L@L@~#j$h   z@) $ $                       ,     ",
"                          k$  h l$~#L@L@L@~#m$`@  y@  5 )   F#2$~#:#L@:#:#d#~#n$h   | )                                 ",
"                          N   h &.L@L@~#~#~#T#o$~ z@  p$*+  4.4$~#L@:#L@:#:#L@.@3   q$~                                 ",
"                        $ r$  3 s$t$u$u$u$q#5.  ~ v$~ w$].  x$y$~#:#L@L@L@L@)$T@$   z$~                                 ",
"                          ) +@  3 O ~.n n O     ^.A$    B$$   C$D$L@~#~#~#L@E$3.    u.~                                 ",
"                            {.j u.F$F$G$H$].I$J$< )   ~ [ b@  o$.@[$K$L$e$M$T@  ~ N$~                                   ",
"                              ~ ~ y@:@J$Y y@].  ~       b@r$      3 , , , 3     Z }                                     ",
"  2.2.                                      ) B           O$P$:@..~ ~ ~ ~ ) ^.=+l                                       ",
"2.Q$R$@                                       )             b@b@} B 5 5 5 T.y@)               D                         ",
"  2.2.                                                          ~ ~ ~ ~ ~ ~                 D S$                        ",
"                                                      a.T$                                  h U$          V$2.          ",
"                                                    W$X$Y$Z$                                  h         `$ %.%+%        ",
"                                                  W$@%#%$%                                              %%&%            ",
"                                  2.              *%=%m                                                   3             ",
"                                -%;%              3 >%                                      ,%                          ",
"                                  (.                                                      '%)%'%                        "};
