/* XPM */
static char * player_xpm[] = {
"60 60 568 2",
"  	c #000000",
". 	c #040105",
"+ 	c #8B399C",
"@ 	c #010001",
"# 	c #311335",
"$ 	c #867A01",
"% 	c #3B3502",
"& 	c #010100",
"* 	c #C0AF01",
"= 	c #605602",
"- 	c #020100",
"; 	c #070600",
"> 	c #020200",
", 	c #530C04",
"' 	c #030000",
") 	c #050202",
"! 	c #020202",
"~ 	c #343434",
"{ 	c #3B3B3B",
"] 	c #313131",
"^ 	c #2E2E2E",
"/ 	c #313130",
"( 	c #303030",
"_ 	c #353535",
": 	c #3C3C3C",
"< 	c #3E3D3E",
"[ 	c #010101",
"} 	c #3D3D3D",
"| 	c #191918",
"1 	c #010000",
"2 	c #000100",
"3 	c #0E0D0D",
"4 	c #2C2C2C",
"5 	c #2B2B2B",
"6 	c #373737",
"7 	c #050504",
"8 	c #020000",
"9 	c #0D0101",
"0 	c #230404",
"a 	c #360505",
"b 	c #3A0506",
"c 	c #3C0507",
"d 	c #3F0607",
"e 	c #3F0707",
"f 	c #2B0405",
"g 	c #130202",
"h 	c #050101",
"i 	c #040403",
"j 	c #282828",
"k 	c #393939",
"l 	c #310505",
"m 	c #800B0B",
"n 	c #AD0F0F",
"o 	c #BB1110",
"p 	c #BE1111",
"q 	c #BC110F",
"r 	c #BF1111",
"s 	c #C31112",
"t 	c #C21111",
"u 	c #BD1011",
"v 	c #B3100F",
"w 	c #940D0D",
"x 	c #560808",
"y 	c #160303",
"z 	c #000001",
"A 	c #080A08",
"B 	c #060806",
"C 	c #3C3B3C",
"D 	c #4B0708",
"E 	c #B40F0F",
"F 	c #C81111",
"G 	c #C51111",
"H 	c #C51112",
"I 	c #C81210",
"J 	c #A10E0E",
"K 	c #430707",
"L 	c #060101",
"M 	c #0D0D0D",
"N 	c #4F0C23",
"O 	c #030001",
"P 	c #0C0C0B",
"Q 	c #191917",
"R 	c #420707",
"S 	c #B41010",
"T 	c #C61111",
"U 	c #C61211",
"V 	c #C41111",
"W 	c #C41110",
"X 	c #C51110",
"Y 	c #B8100F",
"Z 	c #620908",
"` 	c #0D0202",
" .	c #181817",
"..	c #020302",
"+.	c #170303",
"@.	c #990D0D",
"#.	c #C81211",
"$.	c #A80E0F",
"%.	c #930D0D",
"&.	c #7C0A0A",
"*.	c #6F0A09",
"=.	c #650909",
"-.	c #600908",
";.	c #5D0808",
">.	c #580808",
",.	c #5B0808",
"'.	c #600808",
").	c #5F0807",
"!.	c #210404",
"~.	c #070906",
"{.	c #0C0C0C",
"].	c #020002",
"^.	c #262727",
"/.	c #490708",
"(.	c #BD1110",
"_.	c #BA1010",
":.	c #730A08",
"<.	c #330506",
"[.	c #130303",
"}.	c #030101",
"|.	c #000101",
"1.	c #000102",
"2.	c #000202",
"3.	c #010203",
"4.	c #010404",
"5.	c #010405",
"6.	c #020607",
"7.	c #030607",
"8.	c #020304",
"9.	c #010202",
"0.	c #131313",
"a.	c #0B0B0B",
"b.	c #050106",
"c.	c #481C51",
"d.	c #141414",
"e.	c #6E0909",
"f.	c #C21112",
"g.	c #BF1011",
"h.	c #540808",
"i.	c #0C0101",
"j.	c #0E1315",
"k.	c #232E33",
"l.	c #35464E",
"m.	c #435861",
"n.	c #4D6772",
"o.	c #58737F",
"p.	c #5F7B87",
"q.	c #688693",
"r.	c #688794",
"s.	c #678593",
"t.	c #5E7A86",
"u.	c #495F68",
"v.	c #2B393F",
"w.	c #1D1D1D",
"x.	c #020101",
"y.	c #272728",
"z.	c #040603",
"A.	c #830B0B",
"B.	c #C71211",
"C.	c #8D0C0C",
"D.	c #1C272A",
"E.	c #6A8A98",
"F.	c #8BB9CC",
"G.	c #95C4D8",
"H.	c #98C7DB",
"I.	c #9AC9DD",
"J.	c #B6D7E6",
"K.	c #D7EAF2",
"L.	c #DEEEF5",
"M.	c #DDEEF5",
"N.	c #DAECF3",
"O.	c #D3E7EF",
"P.	c #B3D1DE",
"Q.	c #6F8B97",
"R.	c #161D20",
"S.	c #060906",
"T.	c #030302",
"U.	c #3A3A3A",
"V.	c #250404",
"W.	c #8B0C0C",
"X.	c #0F1417",
"Y.	c #516E79",
"Z.	c #94C2D6",
"`.	c #99C8DC",
" +	c #97C7DB",
".+	c #A8D0E2",
"++	c #F2F8F9",
"@+	c #FDFEFE",
"#+	c #FCFDFE",
"$+	c #E5F1F6",
"%+	c #84A6B5",
"&+	c #242F34",
"*+	c #383838",
"=+	c #1E1E1E",
"-+	c #363636",
";+	c #090B09",
">+	c #380606",
",+	c #680908",
"'+	c #263339",
")+	c #4F6C77",
"!+	c #80A8BA",
"~+	c #98C8DD",
"{+	c #98C8DC",
"]+	c #9CC9DD",
"^+	c #D0E6EE",
"/+	c #E9F3F5",
"(+	c #EAF3F5",
"_+	c #EAF4F5",
":+	c #F5FAFB",
"<+	c #F6FBFC",
"[+	c #F4FAFB",
"}+	c #E7F2F5",
"|+	c #A6CEE0",
"1+	c #7398A8",
"2+	c #141A1D",
"3+	c #323232",
"4+	c #020201",
"5+	c #252525",
"6+	c #212121",
"7+	c #0A0A0A",
"8+	c #4A0607",
"9+	c #8C0C0C",
"0+	c #020303",
"a+	c #32434B",
"b+	c #4A656E",
"c+	c #5B7986",
"d+	c #86B1C4",
"e+	c #9ECADE",
"f+	c #9DCADE",
"g+	c #A2CCE0",
"h+	c #ACD2E3",
"i+	c #AFD4E4",
"j+	c #ADD3E3",
"k+	c #ABD2E3",
"l+	c #A5CEE1",
"m+	c #98C9DE",
"n+	c #95C3D7",
"o+	c #3B4C55",
"p+	c #0A0101",
"q+	c #5A0908",
"r+	c #890C0C",
"s+	c #4B6670",
"t+	c #49646D",
"u+	c #54707C",
"v+	c #7AA1B1",
"w+	c #93C1D5",
"x+	c #99C8DD",
"y+	c #99C9DD",
"z+	c #96C6DA",
"A+	c #93C0D4",
"B+	c #83ABBD",
"C+	c #698A99",
"D+	c #2D3D44",
"E+	c #260404",
"F+	c #7B0A0A",
"G+	c #710A09",
"H+	c #1C0303",
"I+	c #120202",
"J+	c #650908",
"K+	c #860B0B",
"L+	c #C01011",
"M+	c #750A09",
"N+	c #253237",
"O+	c #4D6874",
"P+	c #61808C",
"Q+	c #769CAD",
"R+	c #84AEC0",
"S+	c #8AB4C7",
"T+	c #8AB5C8",
"U+	c #84B0C2",
"V+	c #81AABB",
"W+	c #79A0B0",
"X+	c #6F94A5",
"Y+	c #678895",
"Z+	c #5C7A87",
"`+	c #506B76",
" @	c #4A6570",
".@	c #28353C",
"+@	c #0E0202",
"@@	c #8E0D0C",
"#@	c #B91010",
"$@	c #2A0405",
"%@	c #6C0909",
"&@	c #850B0A",
"*@	c #BC1110",
"=@	c #960D0C",
"-@	c #070202",
";@	c #0B0F10",
">@	c #3D5158",
",@	c #4E6974",
"'@	c #516D77",
")@	c #4F6A75",
"!@	c #4B6772",
"~@	c #49656E",
"{@	c #445A64",
"]@	c #161E22",
"^@	c #404040",
"/@	c #5E3C36",
"(@	c #030303",
"_@	c #BB1010",
":@	c #AC0F0E",
"<@	c #1D0303",
"[@	c #200303",
"}@	c #740A08",
"|@	c #7F0A0A",
"1@	c #3A0607",
"2@	c #111619",
"3@	c #3C5058",
"4@	c #4B6570",
"5@	c #4B6671",
"6@	c #455C66",
"7@	c #35474E",
"8@	c #151D1F",
"9@	c #101010",
"0@	c #232323",
"a@	c #070500",
"b@	c #AB9C01",
"c@	c #534B01",
"d@	c #373635",
"e@	c #4A0707",
"f@	c #BA100F",
"g@	c #A20D0D",
"h@	c #210303",
"i@	c #7A0A0A",
"j@	c #B2100E",
"k@	c #950D0D",
"l@	c #1F0303",
"m@	c #0F1617",
"n@	c #2B3A41",
"o@	c #425760",
"p@	c #47616A",
"q@	c #48636C",
"r@	c #4A646E",
"s@	c #48626B",
"t@	c #435962",
"u@	c #354850",
"v@	c #13191C",
"w@	c #070907",
"x@	c #4E4702",
"y@	c #460705",
"z@	c #990D0C",
"A@	c #9A0D0D",
"B@	c #740A09",
"C@	c #0B0202",
"D@	c #780A0A",
"E@	c #A80E0E",
"F@	c #770A0A",
"G@	c #0C1011",
"H@	c #1A2326",
"I@	c #263337",
"J@	c #28343A",
"K@	c #263338",
"L@	c #202A2E",
"M@	c #1C262A",
"N@	c #0E1314",
"O@	c #040605",
"P@	c #2A2A2A",
"Q@	c #181816",
"R@	c #373636",
"S@	c #4D0707",
"T@	c #770A09",
"U@	c #5B0807",
"V@	c #070101",
"W@	c #220403",
"X@	c #740A07",
"Y@	c #800B0A",
"Z@	c #2D0405",
"`@	c #0F0202",
" #	c #050000",
".#	c #190303",
"+#	c #320505",
"@#	c #300505",
"##	c #540708",
"$#	c #790A0A",
"%#	c #0A0202",
"&#	c #260403",
"*#	c #850B0B",
"=#	c #B5100F",
"-#	c #6B0909",
";#	c #470707",
">#	c #370505",
",#	c #310404",
"'#	c #420607",
")#	c #550807",
"!#	c #880B0B",
"~#	c #A30D0D",
"{#	c #060000",
"]#	c #540707",
"^#	c #610807",
"/#	c #0C0202",
"(#	c #270404",
"_#	c #770B0B",
":#	c #AB0E10",
"<#	c #C71111",
"[#	c #C31111",
"}#	c #BE1011",
"|#	c #BC1010",
"1#	c #2F2F2F",
"2#	c #550607",
"3#	c #5B0707",
"4#	c #080101",
"5#	c #240404",
"6#	c #760A09",
"7#	c #780A09",
"8#	c #980D0D",
"9#	c #BD1010",
"0#	c #5C0807",
"a#	c #5A0807",
"b#	c #780B0B",
"c#	c #840B0A",
"d#	c #BD1111",
"e#	c #B00F0F",
"f#	c #4A0708",
"g#	c #090202",
"h#	c #630807",
"i#	c #AC0F10",
"j#	c #A00D0E",
"k#	c #560608",
"l#	c #202020",
"m#	c #292929",
"n#	c #670909",
"o#	c #230403",
"p#	c #970D0D",
"q#	c #8E0C0D",
"r#	c #090A0A",
"s#	c #B20F0E",
"t#	c #4D0607",
"u#	c #1A1A1A",
"v#	c #630908",
"w#	c #2C0405",
"x#	c #8A0C0C",
"y#	c #B91110",
"z#	c #8F0C0C",
"A#	c #490606",
"B#	c #080A09",
"C#	c #690909",
"D#	c #120303",
"E#	c #AB0F0F",
"F#	c #920D0C",
"G#	c #3D0606",
"H#	c #590808",
"I#	c #6A0909",
"J#	c #150303",
"K#	c #A30E0E",
"L#	c #AE0F0F",
"M#	c #B81010",
"N#	c #BC1111",
"O#	c #C01111",
"P#	c #AF0F0F",
"Q#	c #9C0D0D",
"R#	c #860B0A",
"S#	c #770B0A",
"T#	c #070201",
"U#	c #3F3E40",
"V#	c #450706",
"W#	c #6B0908",
"X#	c #1B0303",
"Y#	c #7A0A09",
"Z#	c #820B0B",
"`#	c #850B09",
" $	c #870B0A",
".$	c #870B0B",
"+$	c #3E3E3E",
"@$	c #070200",
"#$	c #6A3609",
"$$	c #683509",
"%$	c #333334",
"&$	c #050705",
"*$	c #740A0A",
"=$	c #1E0403",
"-$	c #1E0303",
";$	c #720A0A",
">$	c #780B0A",
",$	c #351804",
"'$	c #0A0B0A",
")$	c #202021",
"!$	c #4F0707",
"~$	c #5D0807",
"{$	c #180303",
"]$	c #1A0303",
"^$	c #720A08",
"/$	c #750A0A",
"($	c #4B0707",
"_$	c #100202",
":$	c #68090A",
"<$	c #520707",
"[$	c #350506",
"}$	c #400606",
"|$	c #490707",
"1$	c #500707",
"2$	c #510707",
"3$	c #450707",
"4$	c #040000",
"5$	c #4F0A05",
"6$	c #2A2A2B",
"7$	c #600807",
"8$	c #6E0A09",
"9$	c #680909",
"0$	c #661302",
"a$	c #0D0D0C",
"b$	c #530707",
"c$	c #1E1F1F",
"d$	c #730A09",
"e$	c #3F0606",
"f$	c #050704",
"g$	c #161615",
"h$	c #171715",
"i$	c #590807",
"j$	c #560707",
"k$	c #330505",
"l$	c #5E0807",
"m$	c #540607",
"n$	c #080907",
"o$	c #262626",
"p$	c #3D3D3E",
"q$	c #040101",
"r$	c #1B1B1B",
"s$	c #5A0808",
"t$	c #090101",
"u$	c #1A1A18",
"v$	c #3C3B3D",
"w$	c #6B090A",
"x$	c #69090A",
"y$	c #390506",
"z$	c #2D2D2D",
"A$	c #540706",
"B$	c #710A0A",
"C$	c #300404",
"D$	c #242525",
"E$	c #050806",
"F$	c #111111",
"G$	c #460606",
"H$	c #580807",
"I$	c #550707",
"J$	c #222222",
"K$	c #100F0F",
"L$	c #0C0B0C",
"M$	c #0B0C0C",
"N$	c #060705",
"O$	c #3F3E3F",
"P$	c #010201",
"Q$	c #032E53",
"R$	c #032D51",
"S$	c #711433",
"T$	c #000308",
"U$	c #2B0611",
"V$	c #0C040D",
"W$	c #000205",
"X$	c #032D53",
"Y$	c #0C70C6",
"Z$	c #010815",
"`$	c #020003",
" %	c #61276C",
".%	c #47194E",
"+%	c #0F0C01",
"@%	c #044176",
"#%	c #010205",
"$%	c #020102",
"%%	c #000002",
"&%	c #A99A01",
"*%	c #C4B402",
"=%	c #141000",
"-%	c #010C10",
";%	c #141001",
">%	c #0A4956",
",%	c #010305",
"'%	c #010507",
")%	c #1092AB",
"                                    . + .                                                                               ",
"                                    @ # @                                                                               ",
"                                                                                                                        ",
"$ % &                                                                                                                   ",
"* = -                                                                                                                   ",
"; >                                                                                                                     ",
"                                                , '                                                                     ",
"                                                ) ! ! ! ! ! ! ! ! ! ! ! ! !                                             ",
"                                                ~ { ~ ] ^ / ^ ( ~ _ ~ ~ : < [                                           ",
"                                          ! } |             1 1 1 1       2 3 4 5 [                                     ",
"                                        ! 6 7 [ 8 9 0 a b b c d d e b f g h & ! i j                                     ",
"                                      ! k [     l m n o p q p r s t u v w x y z   [ A B                                 ",
"1                                   [ C [   h D E F G G H H H H H H H G I G J K L     [ M                               ",
"N O                                 P Q   8 R S G H H H H G G T U G G V W V X Y Z `     [  .[                           ",
"1                                   { ..  +.@.#.H H H G T p $.%.&.*.=.-.;.>.,.'.).!.1     ~.{.                          ",
"                                  ].^.[   /.(.H H H H _.:.<.[.}.|.|.1.2.3.4.5.6.7.8.9.|.    0.a.                        ",
"                                b.c.d.[ 1 e.f.H H G g.h.i.- ! j.k.l.m.n.o.p.q.r.s.t.u.v.j.[ ! w.P                       ",
"                                x.y.z.& y A.s H H B.C.L     D.E.F.G.H.I.J.K.L.M.N.N.O.P.Q.R.[   4 S.                    ",
"                              2 T.U.  1 V.W.s H H U *.  [ X.Y.Z.`.H. +.+++@+@+@+@+@+@+#+$+%+&+|.[ *+!                   ",
"                      [ ! [ [ =+-+;+  8 >+C.s H H U ,+2 9.'+)+!+~+{+H.]+^+/+(+_+:+<+:+[+}+|+1+2+  ;+3+                  ",
"                    4+5+4 6+Q 7+[     ' 8+9+s H H U =.2 0+a+b+c+d+`.H.H.I.e+f+g+h+i+j+k+l+m+n+o+  ! :                   ",
"                  [ ] [     8 ' '     p+q+r+s H H U =.|.8.a+s+t+u+v+w+x+x+~+y+~+{+~+{+z+A+B+C+D+  [ 4                   ",
"                  5 i   & E+,+F+G+H+  I+J+K+L+H H T M+  9.N+t+t+t+O+P+Q+R+S+T+U+V+W+X+Y+Z+`+ @.@  ! ~                   ",
"                  k !   +@@@#.#.#@$@  H+%@&@*@H H B.=@-@2 ;@>@ @t+t+t+b+,@'@'@)@!@~@t+t+t+t+{@]@  ! ^@                  ",
"                  /@(@  a _@G G :@<@  [@}@|@_.G H V (.1@8   2@3@4@t+t+t+t+t+t+t+t+5@ @t+6@7@8@    9@0@            a@b@c@",
"                  d@!   e@f@V T g@+.  h@}@i@j@G H H G k@l@1 [ m@n@o@p@q@r@q@q@s@p@t@u@'+v@w@[   T.*+!             x.x@a@",
"                  ~ !   y@W.z@A@B@C@  [@}@D@E@G H H H V F@`     ..G@H@I@J@K@L@M@R.N@O@|.        P@Q@                x.  ",
"                  R@!   S@T@F@F@U@V@  W@X@D@=@H H H H H s Y@Z@`@' 1 1       1 1 8  #.#+#>.@#8   ^@!                     ",
"                  ~ !   ##D@$#D@).%#  &#M+D@*#*@G H H H H W =#w -#;#>#,#l +#'#)#-#!#~#Y G Z {#  { !                     ",
"                  ~ !   ]#D@D@D@^#/#  (#M+_#i@:#G H H H H H G <#B.[#}#o o |#t W T <#T G T >. #  4 !                     ",
"                  1#!   2#D@D@$#3#4#  5#6#D@7#8#H H H H H H H H H H H H G G H H H H H G 9#e@'   Q S.                    ",
"                  4 !   0#D@$#D@a#8   (#6#b#D@c#d#G H H H H H H H H H H H H H H H H H V e#f#'   d.d.                    ",
"                  4 ! g#h#D@D@D@U@' 1 (#6#_#b#$#i#G H H H H H H H H H H H H H H H H H V j#k# #  {.l#                    ",
"                  m#! %#n#$#D@$#U@4#  o#6#_#_#$#p#V H H H H H H H H H H H H H H H H H t q#k# #  r#P@&                   ",
"                  0@[ g#h#D@D@$#).C@  V.M+_#D@b#F+s#G H H H H H H H H H H H H H H H G e#&.t#'   {.u#                    ",
"                  0@[ h ).D@D@D@v#`   w#D@D@_#b#$#x#y#G H H H H H H H H H H H H H G 9#z#$#A#'   Q B#                    ",
"                  4 ! }.0#D@D@$#C#D#  w#D@D@_#D@D@$#c#E#t G G G H H H H H H G G V _@F#D@D@G#8   0@[                     ",
"                  ~ !   H#D@D@$#I#J#1 E+M+_#_#D@_#D@D@F+z#K#L#M#N#O#t [#[#t _@P#Q#R#D@_#S#f 8   ~ !       T#            ",
"                z U#!   V#F@D@$#W#X#  o#M+_#b#_#D@_#D@D@D@D@$#Y#Z#`# $x#x#.$Z#i@$#D@D@D@:.<@1   +$!     @$#$@           ",
"              @$$$%$&$  H+n#D@$#*$=$  -$;$D@b#b#_#_#_#D@D@_#b#>$D@$#D@$#$#D@$#D@D@D@D@D@J++@1   ~ !       z z           ",
"              8 ,$'$)$[ 1 h@!$J+~${$  ]$%@$#D@D@_#_#D@D@b#F@B@^$/$F@F@F@F@F@T@F@F@S#_#F@($  2 {.d.[                     ",
"                1 [ { B     8 _$`     y :$$#D@_#D@D@_#D@D@<$0 W@$@[$}$|$1$2$($3$2$:._#B@$@  [ 0@                        ",
"  4$5$              4+~ 6$~.[ [ [     ` 7$$#D@b#_#_#_#D@8$H+                g#f ).F@$#9$[.  ! U.                        ",
"  {#0$                ! ! a$P@4 P@;+   #b$$#D@_#D@_#b#$#:$D#  [ c$w.!   1 +#~$d$D@D@$#3#4#  ! 1#                        ",
"    '                       & & ! P@  8 e$$#D@D@b#b#D@$#:$[.  f${ g$h$  ' i$$#D@D@D@$#j$8     [                         ",
"                                ! 4   8 k$$#b#_#_#D@_#$#:$D#  ! }   Q@  V@l$$#D@D@D@$#m$8   n$                          ",
"                                [ o$  1 E+D@_#_#D@_#D@$#9$[.  T.p$  P@[ q$H#$#$#$#D@D@>.8    .                          ",
"                                [ r$  & .#^$D@D@D@D@_#$#s$t$  a.u$[ v$[   <.n#w$w$w$x$y$1   z$&                         ",
"                                [ d.    }.A$D@$#$#$#D@B$C$  & D$    E$0.    ` y y +.` 1   ^@!                           ",
"                                  [ F$[   .#G$j$H$I$|$E+q$  (@{ [   ! ] J$K$a.L$M$N$N$d.6 ..                            ",
"                                    5 P     1 ' ' ' 1       z$(@      [   a.Q@Q J$0@Q@[ [                               ",
"                                      A 3+0.! [ [ [ [ {.0@O$P$          k !                                       1.1.  ",
"                        L               ! Q@*+} } } k 5 (@(@            !                                       @ Q$R$1.",
"                        S$L                 [ [ [ [ [ [                                                           1.1.  ",
"          1.T$          U$8                                   V$].                                                      ",
"        W$X$Y$Z$        8                                   `$ %.%+%                                                    ",
"            @%#%                                              $%%%&%+%                                                  ",
"            1                                                   z *%=%              1.                                  ",
"                          -%                                      ;%1               >%,%                                ",
"                        '%)%'%                                                      9.                                  "};
